<?xml version="1.0" encoding="UTF-8" standalone="no"?>
<!-- Generated by Pixelmator Pro 3.6.4 -->

<svg
   width="84"
   height="86"
   viewBox="0 0 84 86"
   version="1.1"
   id="svg1"
   xmlns="http://www.w3.org/2000/svg"
   xmlns:svg="http://www.w3.org/2000/svg">
  <defs
     id="defs1" />
  <path
     id="Shape"
     fill="#000000"
     fill-rule="evenodd"
     stroke="none"
     d="m -340.80066,743 c -1.4881,0 -2.49328,-1.20282 -3.7456,-4.48193 -1.11298,-2.91437 -1.55045,-6.15967 -1.25077,-9.27869 0.25351,-2.63825 1.27869,-6.04486 2.2782,-7.57031 1.43216,-2.18573 2.45877,-2.70947 4.84412,-2.47132 2.15075,0.21479 3.51281,1.17054 4.70602,3.30225 0.92359,1.65002 2.35935,2.88153 3.19058,2.73682 0.83121,-0.14478 2.06858,0.40826 2.7497,1.22894 0.9631,1.16046 1.69439,1.24817 3.28955,0.39447 1.70868,-0.91443 2.35788,-0.70227 3.88864,1.27106 1.83755,2.36871 1.83755,2.36871 2.46051,0.11871 0.34262,-1.23749 1.25961,-2.25 2.03772,-2.25 0.77811,0 1.68543,0.70538 2.01624,1.56744 0.33084,0.86213 0.1246,2.54963 -0.45826,3.75 -0.58285,1.20044 -1.54235,3.53254 -2.13223,5.18256 -0.58987,1.65002 -1.35025,3.78748 -1.68976,4.75 -0.35431,1.00452 -1.63257,1.75 -3.00064,1.75 -1.31085,0 -2.38336,-0.58502 -2.38336,-1.29999 0,-0.71502 0.52649,-1.82648 1.16998,-2.46997 0.89328,-0.89331 0.85544,-2.12298 -0.16006,-5.20001 -0.73154,-2.21649 -1.70801,-4.03003 -2.16998,-4.03003 -0.46198,0 -0.83994,1.50525 -0.83994,3.34503 0,1.97058 -0.7514,4.02503 -1.82873,5 -1.00583,0.91022 -3.16581,1.65497 -4.80002,1.65497 -1.63419,0 -3.51126,-0.53998 -4.17124,-1.20001 -0.69806,-0.698 -1.20001,-4.04444 -1.20001,-8 0,-3.97614 -0.42554,-6.79999 -1.02475,-6.79999 -0.56363,0 -1.46362,1.1543 -2,2.56512 -0.53638,1.41077 -0.97525,3.91535 -0.97525,5.56574 0,1.65033 0.51724,3.9671 1.14945,5.14838 0.6322,1.18127 1.35967,2.95172 1.61663,3.93426 0.33548,1.2829 -0.10617,1.7865 -1.56674,1.7865 z m 143.02564,-0.18042 c -1.37246,0.19708 -2.22498,-0.20526 -2.22498,-1.05005 0,-0.75323 0.44568,-1.81518 0.9904,-2.35992 0.54473,-0.54474 1.26108,-2.99726 1.59191,-5.45001 0.39012,-2.89228 0.0546,-6.03614 -0.95465,-8.94532 -0.94953,-2.73706 -1.1968,-4.84515 -0.6343,-5.40765 0.5625,-0.5625 1.49291,-0.44794 2.38668,0.29382 0.80563,0.66858 1.9497,2.60669 2.54237,4.30682 0.59268,1.70014 1.07095,5.38654 1.06285,8.19196 -0.008,2.80542 -0.58188,6.22577 -1.27504,7.60077 -0.69316,1.375 -2.26152,2.6438 -3.48524,2.81958 z m -76.51017,-2.95575 c -0.66815,-0.0749 -2.33981,-0.33588 -3.71481,-0.57989 -1.375,-0.24402 -3.16055,-1.08436 -3.9679,-1.86738 -1.19113,-1.15533 -1.25061,-1.99932 -0.31552,-4.47668 0.96778,-2.5639 0.89942,-3.15002 -0.42672,-3.65887 -0.93656,-0.35944 -2.14231,0.1643 -2.96329,1.28704 -0.83905,1.14746 -1.14456,2.98407 -0.77576,4.66333 0.44107,2.00818 0.17041,2.93836 -0.98391,3.38129 -0.8758,0.33612 -2.23288,0.0795 -3.01572,-0.57019 -1.03421,-0.85834 -1.96961,-0.88892 -3.42151,-0.11188 -1.099,0.5882 -3.5701,1.0694 -5.49136,1.0694 -2.58265,0 -4.03339,-0.68677 -5.56574,-2.63489 C -306.18289,734.76904 -307,732.25964 -307,730 c 0,-2.25964 0.81711,-4.76904 2.07257,-6.36511 1.41431,-1.79804 3.02326,-2.63489 5.06574,-2.63489 1.64624,0 3.86358,0.46582 4.92743,1.03516 1.06384,0.56939 1.93426,1.91937 1.93426,3 0,1.11651 -0.67602,1.96484 -1.56574,1.96484 -0.86117,0 -2.46493,-0.4812 -3.56393,-1.0694 -1.45471,-0.77856 -2.38876,-0.74524 -3.43426,0.12244 -0.78983,0.65552 -1.43607,2.39673 -1.43607,3.86938 0,1.47266 0.54001,3.21759 1.19998,3.87757 0.66001,0.66003 1.81534,1.20001 2.56742,1.20001 0.91342,0 1.15612,-0.66559 0.73104,-2.00494 -0.43573,-1.37287 -0.1,-2.21076 1.06507,-2.65778 0.93579,-0.35913 2.55203,-0.1217 3.59164,0.52753 1.52814,0.95434 1.98166,0.88879 2.36755,-0.34217 0.26252,-0.83746 0.67951,-2.17511 0.92667,-2.97247 0.35437,-1.14331 2.31015,-1.40765 9.25,-1.25 8.80063,0.19983 8.80063,0.19983 9.11398,3.44983 0.17234,1.78748 0.73484,3.25 1.25,3.25 0.51517,0 0.93665,-1.03497 0.93665,-2.29999 0,-1.26501 0.54001,-2.84002 1.19998,-3.5 0.66001,-0.66003 2.4896,-1.20001 4.06577,-1.20001 1.57614,0 3.77124,0.48462 4.87799,1.0769 1.5336,0.8208 2.84765,0.68055 5.52435,-0.58966 3.40732,-1.61688 3.584,-1.59906 5.92201,0.59742 1.32544,1.24517 2.4099,2.80542 2.4099,3.46722 0,0.66174 -0.68054,1.76807 -1.51233,2.45837 -1.1503,0.95466 -1.24069,1.5824 -0.37756,2.62244 0.85139,1.02582 0.82388,1.74188 -0.11011,2.86731 -0.68469,0.82501 -1.88713,1.5 -2.6721,1.5 -0.78498,0 -2.76741,-0.69305 -4.40541,-1.5401 -2.71247,-1.40265 -3.23456,-1.38861 -5.85138,0.15717 -2.74802,1.62329 -3.02945,1.60504 -6.45914,-0.41852 -3.54175,-2.08966 -3.59885,-2.09162 -4.63413,-0.15717 -0.5765,1.07727 -1.59487,1.89734 -2.26303,1.82245 z m 60.08486,0.0837 c -0.71482,-0.0289 -2.31217,-0.75879 -3.54967,-1.62201 -1.2375,-0.86322 -2.25,-2.41461 -2.25,-3.44751 0,-1.14184 0.70563,-1.87805 1.8,-1.87805 0.98999,0 2.34,0.53998 3,1.20001 0.81546,0.81543 1.52677,0.87323 2.2197,0.1803 0.69295,-0.69293 -0.18829,-1.79999 -2.75,-3.45453 -2.07334,-1.33917 -3.90781,-3.40185 -4.0766,-4.58374 -0.19208,-1.34497 0.54591,-2.74628 1.9725,-3.74548 1.25368,-0.87812 3.41678,-1.58655 4.8069,-1.57434 1.39013,0.0123 3.60473,0.85052 4.92131,1.86279 1.33646,1.02759 2.08338,2.34289 1.691,2.97778 -0.38657,0.62549 -1.48628,1.13721 -2.44383,1.13721 -0.95754,0 -2.28098,-0.53998 -2.94098,-1.20001 -0.89243,-0.8924 -1.48979,-0.91022 -2.33063,-0.0693 -0.84082,0.84082 -0.13597,1.5979 2.75,2.95386 2.49301,1.17132 3.99207,2.6048 4.19226,4.00891 0.20866,1.4635 1.12752,2.28821 2.78108,2.49609 1.3582,0.17078 2.43105,0.7605 2.38408,1.31049 -0.047,0.54999 -1.24611,0.90704 -2.66475,0.79346 -1.41864,-0.11365 -3.84686,0.44885 -5.39604,1.25 -1.54918,0.80108 -3.40153,1.43292 -4.11633,1.40411 z m -19.33951,-1.1532 c -2.35979,0.17548 -4.7684,-0.30499 -5.96016,-1.18884 -1.91246,-1.4184 -1.9227,-1.56171 -0.23384,-3.27484 1.43988,-1.46063 2.11691,-1.57257 3.66473,-0.6059 1.51145,0.94391 2.14327,0.89081 3.09874,-0.2605 0.7609,-0.9168 0.97579,-3.005 0.58712,-5.7052 -0.33719,-2.34253 -0.20931,-4.88714 0.28416,-5.65478 0.49348,-0.7677 1.61766,-1.11926 2.49817,-0.78143 1.22993,0.47198 1.57782,1.9541 1.50123,6.39575 -0.0548,3.17975 -0.41024,6.90637 -0.78984,8.28137 -0.56698,2.05383 -1.39697,2.55255 -4.65031,2.79437 z m -97.71626,-5.10968 c 1.30468,-1.30469 1.40609,-1.93469 0.46325,-2.87756 -0.89911,-0.89911 -1.49621,-0.91803 -2.33993,-0.0743 -0.62305,0.62304 -0.83151,1.91791 -0.46326,2.87756 0.62549,1.62994 0.77939,1.63489 2.33994,0.0743 z m 68.42331,1.13544 c 1.19687,-0.17609 2.35122,-0.85217 2.56521,-1.50244 0.21402,-0.65027 -0.58655,-1.70441 -1.77902,-2.34265 -1.48126,-0.79273 -2.49298,-0.83545 -3.19354,-0.13489 -0.564,0.56396 -0.74268,1.76221 -0.39713,2.66278 0.37912,0.98792 1.49146,1.51038 2.80448,1.3172 z M -234.93657,717 c -2.1002,0 -4.30095,-0.58124 -4.89055,-1.29169 -0.5896,-0.71045 -1.2072,-4.42291 -1.37243,-8.25 -0.24323,-5.63318 -0.58611,-6.87225 -1.80045,-6.50653 -0.825,0.24854 -4.2,0.5976 -7.5,0.7757 -4.82396,0.26037 -6.77859,-0.12537 -9.97223,-1.96802 -2.81024,-1.62146 -4.77994,-3.89612 -6.73324,-7.7757 -2.43885,-4.84387 -2.76297,-6.60821 -2.77778,-15.11981 -0.0167,-9.60565 -0.004,-9.65515 4.02713,-15.69177 3.65976,-5.48059 4.56388,-6.20697 9.51893,-7.6474 4.40318,-1.28003 6.28767,-1.37286 9.62561,-0.47406 2.2828,0.61468 5.31176,0.82752 6.73106,0.47284 1.41928,-0.35462 3.71565,-0.87854 5.10303,-1.16425 1.69133,-0.34832 3.03837,0.0835 4.08804,1.31061 1.35878,1.58838 1.52879,5.75849 1.28746,31.57849 -0.15292,16.3617 -0.55659,30.19916 -0.89705,30.75 -0.34044,0.55091 -2.33734,1.00159 -4.43753,1.00159 z m 206.323411,0 c -2.038941,0 -3.669922,-0.5741 -3.988342,-1.40393 -0.296326,-0.77216 -0.496369,-14.80164 -0.44455,-31.17658 0.06338,-20.02368 0.453888,-30.20599 1.192596,-31.09606 0.604096,-0.72785 1.949341,-1.32343 2.989472,-1.32343 1.0401,0 2.722259,0.51904 3.738129,1.1535 1.077148,0.67267 3.259735,0.88391 5.236419,0.50672 1.864197,-0.35565 4.66449,-0.93439 6.22287,-1.28595 1.55838,-0.35163 4.708374,-0.0527 7,0.6643 2.291596,0.71705 5.610809,2.64722 7.376007,4.28943 1.765198,1.64215 3.90271,5.02033 4.75,7.50702 C 6.356354,667.46728 7,672.79852 7,677.59522 c 0,5.82897 -0.547546,9.51629 -1.871826,12.60571 -1.02948,2.40173 -3.512726,5.80755 -5.518341,7.56848 -2.005585,1.76092 -4.810547,3.49383 -6.233277,3.85095 -1.422729,0.35706 -5.464477,0.38049 -8.981659,0.0521 C -22,701.07526 -22,701.07526 -22,708.43066 c 0,5.78461 -0.337799,7.48499 -1.581787,7.96235 C -24.451782,716.72687 -26.715881,717 -28.613159,717 Z M -339.77023,701.9679 c -4.18186,-0.0234 -7.20444,-0.76636 -11.18848,-2.75 -3.81342,-1.89869 -6.40127,-4.11078 -8.58603,-7.33918 -1.75076,-2.58709 -3.69351,-7.28912 -4.41354,-10.68213 -0.75214,-3.54431 -1.11637,-9.94427 -0.87717,-15.41345 0.31671,-7.24115 0.92889,-10.36053 2.71185,-13.81781 1.26654,-2.45593 3.4986,-5.73089 4.96009,-7.27777 1.46151,-1.54681 4.62838,-3.68432 7.0375,-4.75 2.81943,-1.24713 6.62155,-1.93756 10.67023,-1.93756 4.07556,0 7.8154,0.68414 10.62286,1.94324 2.38312,1.06878 5.29303,2.75628 6.46653,3.75 1.17349,0.99371 2.90564,3.48022 3.84918,5.52563 0.94354,2.04535 1.78342,5.1474 1.86636,6.89343 0.12302,2.58893 -0.32855,3.33869 -2.44766,4.06397 -1.60291,0.54864 -3.62585,0.49884 -5.27979,-0.13001 -1.7507,-0.66558 -3.32006,-2.50964 -4.52182,-5.31323 -1.12329,-2.62048 -2.88369,-4.7691 -4.51727,-5.51343 -1.4722,-0.67077 -4.42102,-1.2196 -6.55295,-1.2196 -2.75341,0 -4.80682,0.78308 -7.08892,2.70331 -1.76697,1.48681 -3.82651,4.17236 -4.57673,5.96789 -0.84475,2.02185 -1.36401,7.08765 -1.36401,13.30756 0,8.21594 0.39423,10.88171 2.1669,14.65289 1.53571,3.26715 3.12839,5.0116 5.46787,5.98914 1.81555,0.75854 5.03125,1.37921 7.14602,1.37921 2.92688,0 4.50064,-0.68433 6.59064,-2.86578 1.5101,-1.57624 3.00928,-3.93872 3.33154,-5.25 0.32224,-1.31134 1.026,-2.94672 1.56391,-3.63422 0.5379,-0.6875 2.66781,-1.25 4.73312,-1.25 2.06531,0 4.2868,0.64062 4.93665,1.42364 0.8797,1.06 0.90557,2.40125 0.10131,5.25 -0.59414,2.1045 -1.63324,4.73169 -2.30911,5.8382 -0.67587,1.10651 -2.35385,3.16345 -3.72885,4.57098 -1.375,1.40754 -4.4216,3.31476 -6.77023,4.23816 -2.34864,0.92347 -6.84864,1.66456 -10,1.64692 z M -182.62802,699.5 c -11.9128,1.16296 -17.959,1.70734 -21.12167,1.95996 -3.38457,0.27039 -6.82358,-0.0383 -8.35909,-0.7503 -1.43483,-0.66529 -3.90851,-2.75678 -5.49708,-4.64765 -2.88831,-3.43799 -2.88831,-3.43799 -3.25498,-21.95788 -0.21487,-10.8526 0.0327,-19.15833 0.59793,-20.06202 0.53053,-0.84814 2.44493,-1.6878 4.25421,-1.86596 1.96118,-0.19306 3.88977,0.27636 4.77584,1.16241 1.069,1.06903 1.32362,2.70392 0.90701,5.82385 -0.31857,2.38569 -0.2404,10.12793 0.17372,17.20508 0.63977,10.93366 1.03706,13.0752 2.64366,14.25 1.0399,0.76038 3.17294,1.38251 4.7401,1.38251 1.56714,0 4.18114,-0.98462 5.80887,-2.18805 C -194,687.6239 -194,687.6239 -194,671.01196 c 0,-11.58709 0.36298,-16.97491 1.2,-17.81195 0.66,-0.66003 2.6299,-1.20001 4.37756,-1.20001 1.74765,0 3.64818,0.56708 4.2234,1.26019 0.64106,0.7724 1.14748,9.96472 1.30843,23.75 z m 27.7059,2.5 c -3.12283,0 -6.10538,-0.40631 -6.62788,-0.90295 -0.52249,-0.49659 -1.63758,-1.05909 -2.47794,-1.25 -0.84036,-0.19086 -3.10684,-1.5647 -5.0366,-3.05298 -2.27974,-1.75818 -4.1397,-4.46076 -5.31031,-7.71607 -1.07672,-2.99432 -1.80162,-7.78375 -1.80162,-11.90362 0,-4.90802 0.6404,-8.38202 2.22353,-12.06214 1.25432,-2.91571 3.5683,-6.13714 5.30865,-7.3905 1.69683,-1.22192 4.34166,-2.76489 5.87743,-3.42883 1.53575,-0.66388 4.32341,-1.49427 6.19479,-1.84534 1.92714,-0.36157 5.06531,-0.0755 7.23729,0.65973 2.10913,0.71393 5.10845,2.4444 6.66516,3.8454 1.55672,1.401 3.63469,4.34729 4.61774,6.5473 0.98303,2.20001 2.06021,6.76709 2.39372,10.14905 0.47199,4.78619 0.27507,6.42401 -0.88847,7.38965 -1.0336,0.85778 -4.03412,1.0971 -9.72412,0.77551 -4.52608,-0.25586 -10.36675,-0.27338 -12.97925,-0.039 -3.88284,0.34839 -4.75,0.77936 -4.75,2.36065 0,1.06397 0.72405,3.03956 1.60898,4.39014 0.90381,1.37933 3.27162,2.90332 5.40254,3.47711 2.34325,0.63098 4.69102,0.67566 6.14102,0.11689 1.29111,-0.49756 3.63259,-1.92322 5.2033,-3.16816 2.29922,-1.82232 3.37117,-2.08301 5.5,-1.33752 1.65199,0.57849 2.76937,1.80316 2.97785,3.26373 0.21677,1.51868 -0.65917,3.37982 -2.5,5.31177 -1.55853,1.63568 -4.35115,3.61212 -6.20582,4.39209 -1.85466,0.77997 -5.92716,1.41809 -9.04999,1.41809 z M 76,701.44348 c -5.321228,0.45099 -7.17804,0.18536 -10.238861,-1.46448 -2.056366,-1.10846 -4.487366,-3.15777 -5.402252,-4.55401 -0.914856,-1.39624 -1.876129,-4.75263 -2.136139,-7.45856 -0.320038,-3.33063 0.05594,-6.03393 1.163879,-8.36877 0.900147,-1.89692 3.093903,-4.30719 4.875,-5.35621 1.781098,-1.04907 5.038361,-2.43261 7.238373,-3.07458 2.200012,-0.64203 6.024994,-1.27966 8.5,-1.41705 3.806458,-0.21131 4.472626,-0.5553 4.322418,-2.23194 -0.09766,-1.09021 -1.160034,-2.77771 -2.360779,-3.75 C 80.760864,662.79553 78.645325,662 77.260406,662 c -1.473144,0 -4.125579,1.45233 -6.392089,3.5 -2.534607,2.28986 -4.868012,3.5 -6.748749,3.5 -1.581085,0 -3.430023,-0.66913 -4.108795,-1.487 -0.678772,-0.81787 -0.976807,-2.51221 -0.662323,-3.7652 0.314483,-1.25299 2.052215,-3.69293 3.861664,-5.42218 1.809448,-1.72918 5.032348,-3.85986 7.162017,-4.7348 2.12967,-0.87494 5.279663,-1.58398 7,-1.57562 1.720337,0.008 4.927857,0.57928 7.127869,1.26874 2.200012,0.68945 5.381226,2.59515 7.069427,4.2348 2.282502,2.21698 3.368256,4.51947 4.235108,8.98126 0.641144,3.29999 1.284912,11.92499 1.430603,19.16656 0.14566,7.24164 -0.112885,13.54163 -0.574555,14 -0.4617,0.45838 -3.8367,0.92176 -7.5,1.02973 -3.66333,0.10803 -9.585571,0.44421 -13.160583,0.74719 z m 49.12787,0.48883 c -2.54532,-0.0372 -5.62396,-0.54864 -6.84143,-1.13653 -1.21747,-0.58789 -3.98542,-0.83124 -6.151,-0.54078 -2.16562,0.29047 -4.9173,0.0144 -6.1149,-0.61346 -2.16861,-1.1369 -2.177,-1.2666 -2.07181,-32.07178 0.071,-20.79565 0.46448,-31.36273 1.20087,-32.25 0.60241,-0.72589 2.30417,-1.31976 3.7817,-1.31976 1.47754,0 3.43473,0.5625 4.34934,1.25 1.27707,0.96002 1.72742,3.22199 1.9411,9.75 0.25595,7.81818 0.43869,8.48407 2.27826,8.30151 1.10001,-0.10919 4.02499,-0.48248 6.5,-0.82946 3.06207,-0.42932 5.66003,-0.13794 8.13031,0.91192 1.9967,0.84857 4.69672,2.81781 6,4.37616 1.30334,1.55829 3.22333,4.43262 4.26672,6.38733 1.41913,2.65869 1.91065,5.70203 1.95093,12.07953 0.0306,4.83563 -0.56183,10.39099 -1.36871,12.83594 -0.78247,2.37079 -2.50171,5.59295 -3.82062,7.1604 -1.31891,1.56738 -3.97406,3.50836 -5.90042,4.31323 -1.92636,0.80493 -5.58499,1.43298 -8.13034,1.39575 z M 171,701.87476 c -6.19898,0.006 -8.12207,-0.40046 -11.08606,-2.34436 -1.97229,-1.29358 -4.77295,-3.76258 -6.22369,-5.48664 -1.45069,-1.72412 -3.15174,-5.02673 -3.78009,-7.33923 -0.64869,-2.38745 -0.92157,-7.48749 -0.63135,-11.80097 0.28106,-4.17804 1.22149,-8.97039 2.0899,-10.64965 0.86835,-1.67926 3.36438,-4.58155 5.54676,-6.44953 2.24469,-1.92138 6.12378,-3.94891 8.93219,-4.6687 3.96734,-1.01678 5.83667,-1.02411 9.30828,-0.0363 2.38923,0.6798 5.62275,2.39807 7.18561,3.81836 1.56293,1.42022 3.66907,4.19048 4.68042,6.156 1.01135,1.96558 2.1529,6.34985 2.53681,9.74286 0.49389,4.36566 0.33227,6.60974 -0.55286,7.67627 -0.99988,1.20477 -3.92261,1.50714 -14.56934,1.50714 -7.32519,0 -13.57531,0.41547 -13.88916,0.92322 -0.31378,0.50781 0.37281,2.52215 1.52588,4.47644 1.42261,2.41113 3.20026,3.85797 5.53076,4.50146 2.08191,0.57483 4.67115,0.59351 6.57526,0.0474 1.72754,-0.49543 4.20038,-1.89612 5.4953,-3.11261 1.91547,-1.7995 2.84503,-2.03699 4.98633,-1.27387 1.44751,0.51587 3.12622,1.72541 3.73035,2.68793 0.79638,1.26874 0.79724,2.22754 0.003,3.48639 -0.60242,0.95502 -3.07507,3.17517 -5.49487,4.93359 -4.01606,2.91852 -5.05347,3.19788 -11.8996,3.20478 z m 39.48065,-0.14039 c -2.86462,0.13477 -6.0722,-0.36962 -7.54986,-1.18725 -1.51813,-0.83997 -3.0611,-2.98138 -3.77155,-5.23431 C 198.49799,693.21576 197.85413,684.97498 197.72845,677 197.5,662.5 197.5,662.5 194.02136,662 c -2.66296,-0.38275 -3.70233,-1.13776 -4.43243,-3.21973 -0.75037,-2.13989 -0.57288,-3.14056 0.83264,-4.6936 0.98248,-1.08563 2.97705,-2.11176 4.43237,-2.28027 2.27014,-0.26288 2.69019,-0.83997 2.95679,-4.06214 0.24914,-3.01178 0.90796,-4.06457 3.32617,-5.31506 2.72485,-1.40906 3.24353,-1.40997 5.38104,-0.009 1.7613,1.15405 2.44434,2.63953 2.67383,5.81512 0.27667,3.8288 0.552,4.23829 2.69153,4.00324 1.31079,-0.14398 2.99829,0.2486 3.75,0.87244 0.75165,0.6239 1.3667,2.37408 1.3667,3.8894 0,1.51532 -0.5625,3.2171 -1.25,3.78174 -0.6875,0.56463 -2.375,1.18225 -3.75,1.37243 -2.5,0.34583 -2.5,0.34583 -2.5,14.836 0,14.49018 0,14.49018 2.89307,15 1.59118,0.2804 3.3739,1.27356 3.9616,2.20704 0.72339,1.14904 0.75165,2.60253 0.0875,4.5 -0.87933,2.51239 -1.49701,2.82708 -5.96155,3.03716 z M -304.57754,701 c -1.74769,0 -3.65128,-0.5708 -4.23026,-1.26837 -0.68542,-0.82593 -1.05161,-11.72766 -1.04962,-31.25 0.002,-16.48993 0.41061,-30.99414 0.90878,-32.23163 0.68433,-1.69989 1.71778,-2.25 4.2272,-2.25 1.82679,0 3.86142,0.53998 4.52143,1.20001 0.8819,0.8819 1.20001,9.44446 1.20001,32.29999 0,22.85553 -0.31811,31.41809 -1.20001,32.29999 -0.66001,0.66003 -2.62989,1.20001 -4.37753,1.20001 z m 22.39328,-0.0634 c -0.72367,-0.0349 -2.31107,-0.46406 -3.52759,-0.95368 -2.17377,-0.87494 -2.21683,-1.26275 -2.5,-22.50403 -0.15848,-11.88757 0.0349,-22.4834 0.42962,-23.54632 0.54526,-1.46808 1.6785,-1.93262 4.71482,-1.93262 2.92831,0 4.27383,0.51721 5.03222,1.93426 0.62165,1.16156 1.03519,10.53559 1.03519,23.46485 0,20.26312 -0.11386,21.59143 -1.93426,22.56573 -1.06385,0.56934 -2.52634,1.00666 -3.25,0.97181 z M -106.5,700.5238 c -2.65939,0.41632 -4.41894,0.19892 -5.25,-0.6488 -0.6875,-0.70123 -1.25,-1.86609 -1.25,-2.58856 0,-0.72247 0.43219,-2.09497 0.96042,-3.04999 0.52826,-0.95508 3.97088,-10.06146 7.65033,-20.23645 3.67944,-10.17499 7.343138,-20.07501 8.141539,-22 0.798401,-1.92499 1.814941,-4.40002 2.259003,-5.5 0.44403,-1.09998 1.019287,-2.67499 1.27832,-3.5 0.259033,-0.82501 1.380676,-2.31732 2.492584,-3.31622 1.393402,-1.25183 3.217377,-1.71796 5.869721,-1.5 3.598022,0.29565 3.940002,0.60864 5.262695,4.81622 0.778045,2.47498 2.119903,6.07501 2.981903,8 0.86203,1.92499 1.711151,4.17499 1.886932,5 0.175812,0.82501 0.692566,2.40002 1.148377,3.5 0.45581,1.09998 1.554138,3.79999 2.440765,6 0.886597,2.20001 2.393585,5.79999 3.348877,8 0.955292,2.20001 1.980621,4.90002 2.278534,6 0.297913,1.09998 1.332855,3.77374 2.299866,5.94165 0.967041,2.16791 2.032196,5.0929 2.367065,6.5 0.33487,1.4071 1.04715,3.11511 1.582825,3.79559 0.535705,0.68055 0.734985,1.86011 0.442871,2.62134 -0.292114,0.76123 -1.692444,1.67554 -3.111877,2.0318 -1.419404,0.35626 -3.721772,0.36133 -5.116364,0.0113 -1.650787,-0.41436 -3.0466,-1.85943 -4,-4.14117 C -71.341034,694.33289 -72,691.91071 -72,690.87787 c 0,-1.03284 -0.899994,-2.77789 -2,-3.87787 -1.730042,-1.73004 -3.333344,-2 -11.877563,-2 -6.715729,0 -10.189423,0.40015 -10.851868,1.25 -0.535858,0.6875 -1.806763,3.72498 -2.824188,6.75 -1.017421,3.02502 -2.096591,5.81445 -2.398131,6.19879 -0.30155,0.3844 -2.34824,0.98065 -4.54825,1.32501 z m 58.315735,0.46088 c -1.273651,-0.008 -2.860504,-0.36151 -3.526306,-0.78467 -0.900879,-0.57251 -1.241486,-8.76745 -1.33136,-32.03412 -0.08911,-23.0559 0.195251,-31.64569 1.083008,-32.71539 0.662079,-0.79779 2.707885,-1.4505 4.546173,-1.4505 2.281067,0 3.671081,0.6142 4.377563,1.93426 0.648743,1.21216 1.035187,13.33167 1.035187,32.46485 0,29.16119 -0.08676,30.57696 -1.934265,31.56573 -1.063843,0.56934 -2.976349,1.02826 -4.25,1.01984 z m 67,-0.0151 C 17.542084,700.95288 15.712494,700.48053 14.75,699.91992 13.14209,698.9834 13,696.34967 13,667.48547 13,637.44977 13.08493,636.0249 14.934265,635.03522 15.998108,634.46582 17.953369,634 19.279266,634 c 1.325928,0 3.134766,0.80005 4.019684,1.77783 1.128876,1.24744 1.697266,4.15643 1.904999,9.75 0.269989,7.27075 0.472015,7.95795 2.296051,7.81055 1.100006,-0.0889 3.714203,-0.48963 5.809357,-0.89044 2.36615,-0.45276 5.2836,-0.24231 7.700653,0.55536 2.140198,0.70636 4.983795,2.45703 6.319061,3.8905 1.362824,1.46295 2.866913,4.79944 3.428894,7.6062 0.550629,2.75 1.098053,11.62769 1.216492,19.72821 0.214721,14.6861 0.208435,14.73132 -2.194977,15.82642 -1.569031,0.7149 -3.609131,0.7879 -5.84491,0.20916 C 40.5,699.37482 40.5,699.37482 40.224792,682.46222 40.073425,673.16028 39.56543,665.1654 39.095886,664.69586 c -0.469543,-0.46954 -2.595703,-1.086 -4.724792,-1.36999 -2.985535,-0.3982 -4.500183,-0.0204 -6.621094,1.65149 -2.75,2.16778 -2.75,2.16778 -2.75,18.06005 0,14.68872 -0.146484,15.97065 -1.934265,16.92743 -1.063843,0.56934 -2.976349,1.02149 -4.25,1.00476 z m -266.945125,-8.63897 c 1.44616,-0.35584 3.64189,-1.30255 4.87939,-2.10382 2.11519,-1.36951 2.25,-2.13556 2.25,-12.7851 0,-10.57275 -0.14824,-11.43213 -2.2225,-12.88501 -1.22238,-0.8562 -3.83638,-1.5567 -5.80887,-1.5567 -1.97251,0 -4.32794,0.5625 -5.23432,1.25 -0.90637,0.6875 -2.3396,2.59998 -3.18496,4.25 -0.858,1.67468 -1.53977,5.56219 -1.54318,8.79968 -0.003,3.18982 0.65985,7.08759 1.47384,8.66168 0.81403,1.5741 2.66829,3.79676 4.12061,4.93915 1.87573,1.47541 3.40219,1.88965 5.26999,1.43012 z m 235.605586,0.0635 c 1.113098,-0.32836 3.310425,-1.84661 4.882935,-3.3739 2.05365,-1.99463 3.003876,-4.06122 3.372955,-7.33569 0.282623,-2.50733 0.212372,-6.56922 -0.156097,-9.02631 -0.390534,-2.60431 -1.673096,-5.54992 -3.075226,-7.06286 -1.786957,-1.92816 -3.3815,-2.5896 -6.203003,-2.57312 -2.088776,0.0123 -4.825928,0.81347 -6.08255,1.78057 -2.175873,1.67444 -2.27124,2.29969 -2,13.11121 0.28479,11.35291 0.28479,11.35291 3.760986,13.21503 1.952271,1.04584 4.363404,1.6004 5.5,1.26507 z M 76.266724,692 c 2.027588,0 4.108093,-0.94299 5.928558,-2.68707 C 83.90744,687.67255 85,685.57776 85,683.93536 c 0,-1.47973 -0.646912,-3.22735 -1.437561,-3.88354 -0.950378,-0.78876 -3.00061,-0.95868 -6.049561,-0.50147 -2.53659,0.38038 -5.264679,1.3443 -6.062408,2.14203 C 70.65271,682.49017 70,684.42859 70,686 c 0,1.57141 0.707153,3.56427 1.571442,4.42859 C 72.435699,691.29285 74.548584,692 76.266724,692 Z m 47.364596,0 c 1.96838,0 4.24905,-0.89026 5.76394,-2.25 1.76703,-1.586 2.81238,-3.97955 3.5423,-8.11072 0.73001,-4.1319 0.71402,-7.13733 -0.0543,-10.18841 -0.59933,-2.38025 -1.90836,-5.06855 -2.9089,-5.974 -1.00055,-0.90552 -3.61988,-1.88788 -5.82077,-2.18311 -3.36918,-0.4519 -4.40873,-0.12958 -6.57761,2.03931 -2.39633,2.39636 -2.57602,3.22058 -2.57602,11.81677 0,8.66583 0.16718,9.41522 2.6871,12.04547 C 119.55422,691.14417 121.368,692 123.63128,692 Z M -84.768616,675 c 3.222443,0 5.01059,-0.46698 5.369507,-1.40228 0.29596,-0.77124 0.07684,-2.23377 -0.486908,-3.25 -0.563751,-1.01624 -1.837005,-4.28669 -2.829468,-7.2677 -0.992462,-2.98102 -2.300872,-5.58545 -2.907562,-5.78772 -0.606689,-0.20221 -1.678131,1.11181 -2.380951,2.92004 -0.70285,1.80823 -1.889465,4.5943 -2.636932,6.19129 -0.747498,1.59704 -1.35907,3.64453 -1.35907,4.54998 0,0.90552 0.540009,2.1864 1.200012,2.84638 0.659973,0.66003 3.374115,1.20001 6.031372,1.20001 z m -70.496524,-3.20764 c 7.5775,-0.28528 7.75855,-0.3515 7.49207,-2.73914 -0.15019,-1.3457 -1.00743,-3.25818 -1.90498,-4.25 -1.08799,-1.20215 -3.05747,-1.80322 -5.90885,-1.80322 -3.62185,0 -4.60795,0.46491 -6.43837,3.03552 -1.18881,1.6695 -1.90126,3.71356 -1.58323,4.5423 0.46057,1.20026 2.15827,1.44739 8.34336,1.21454 z M 170,672 c 4.33508,0 8.13873,-0.41547 8.45258,-0.92322 0.31378,-0.50781 -0.37909,-2.53277 -1.5398,-4.5 -1.85651,-3.1466 -2.5874,-3.57678 -6.07727,-3.57678 -2.18189,0 -4.85895,0.47736 -5.9491,1.06079 -1.09021,0.58344 -2.41382,2.19623 -2.9414,3.58392 -0.52765,1.3877 -0.70453,2.93537 -0.39313,3.43921 C 161.86328,671.58777 165.66492,672 170,672 Z m -453.22144,-24 c -3.00296,0 -4.0335,-0.48193 -4.81152,-2.25 -0.57416,-1.30481 -0.64728,-3.48291 -0.17404,-5.18481 0.5347,-1.92298 1.75641,-3.24836 3.54355,-3.84406 2.02359,-0.6745 3.3645,-0.49182 5.19549,0.70789 1.79288,1.17474 2.46796,2.51348 2.46796,4.89404 0,1.80231 -0.54001,3.81695 -1.20001,4.47693 -0.66001,0.66003 -2.91965,1.20001 -5.02143,1.20001 z m -17.0567,-35.18494 c -0.95034,0.18299 -1.98996,-0.35009 -2.31021,-1.18469 -0.32025,-0.83453 -0.30145,-2.40216 0.0417,-3.48358 0.34323,-1.08142 1.28162,-2.5119 2.08533,-3.17889 0.80371,-0.66706 1.46127,-2.13477 1.46127,-3.2616 0,-1.12683 -0.62176,-2.75922 -1.38171,-3.62756 -0.75995,-0.86829 -1.69098,-2.59345 -2.06897,-3.83362 -0.49964,-1.63947 -0.21534,-2.43604 1.04162,-2.9184 1.19861,-0.4599 2.45545,0.23169 4.09787,2.25495 2.36902,2.91833 2.36902,2.91833 5.11338,-0.39173 1.50939,-1.82056 3.07138,-2.98303 3.47106,-2.58337 0.39972,0.39978 0.72675,1.69079 0.72675,2.86902 0,1.17816 -0.66071,3.01562 -1.4682,4.08325 -0.8075,1.06769 -1.48251,2.70294 -1.5,3.63403 -0.0175,0.93103 0.91489,3.29736 2.07196,5.25842 1.15704,1.96106 1.84616,4.23682 1.53137,5.05713 -0.31479,0.82038 -1.24994,1.49158 -2.07806,1.49158 -0.82816,0 -2.21866,-1.37872 -3.09006,-3.06378 -0.8714,-1.68506 -2.02582,-2.91663 -2.56543,-2.73676 -0.53961,0.17987 -1.53702,1.44208 -2.21646,2.80494 -0.67944,1.36285 -2.01291,2.62762 -2.96326,2.81066 z m 207.025119,-17.00451 c -0.964173,0.18554 -1.943085,-0.25849 -2.175354,-0.98664 -0.23227,-0.72815 -0.693817,-3.36358 -1.025635,-5.8565 -0.331818,-2.49292 -1.490417,-5.99128 -2.574646,-7.77417 C -100.11292,579.4104 -101,577.08911 -101,576.03485 c 0,-1.05426 0.3837,-2.15399 0.85269,-2.44379 0.468965,-0.28985 1.481447,0.0211 2.250002,0.69098 0.768524,0.66986 1.879455,2.09119 2.46875,3.15845 0.589294,1.06726 1.524261,2.09137 2.077697,2.27588 0.553437,0.18451 1.529877,-0.81384 2.169892,-2.21857 0.640014,-1.40466 1.872802,-2.82605 2.739532,-3.15863 0.86673,-0.33258 2.052582,-0.12799 2.635193,0.45459 0.745789,0.74579 0.249634,2.48706 -1.676208,5.88275 -1.504548,2.65296 -3.023987,7.06751 -3.376557,9.81018 -0.467804,3.63941 -1.114624,5.07776 -2.394012,5.32386 z M 19.957611,584.79096 c -3.598297,0.16003 -6.860809,-0.0275 -7.25,-0.41669 C 12.31842,583.98511 12,582.80542 12,581.75281 c 0,-1.05262 1.540375,-4.24012 3.423035,-7.08338 1.88266,-2.84314 3.57016,-5.84442 3.75,-6.66943 0.218719,-1.00342 -0.603028,-1.60663 -2.482087,-1.82214 -1.544982,-0.17713 -3.073059,-1.01001 -3.395721,-1.8509 -0.322662,-0.84088 0.04141,-1.92651 0.809052,-2.41253 0.767639,-0.48608 3.222198,-0.89069 5.454589,-0.89911 2.232392,-0.008 4.868805,0.57696 5.858735,1.30078 0.989929,0.72382 1.638458,1.97449 1.441131,2.77918 -0.197296,0.80468 -1.444031,3.24994 -2.770508,5.43389 -1.326477,2.18396 -3.306366,4.97156 -4.39978,6.19471 -1.578552,1.76587 -1.699707,2.32348 -0.588257,2.70703 0.769898,0.26574 2.749817,0.61499 4.399811,0.77612 2.235657,0.21832 3,0.80249 3,2.29297 0,1.7666 -0.763641,2.03394 -6.542389,2.29096 z M -313.08978,571.48798 c -0.87439,0.33166 -2.14905,-0.0708 -2.83258,-0.89441 -0.68354,-0.82361 -1.09079,-2.28675 -0.90503,-3.25141 0.18579,-0.9646 6.18542,-6.13476 13.33258,-11.48913 7.14715,-5.35437 14.90732,-11.16431 17.24481,-12.91095 2.33749,-1.74665 4.25,-3.94019 4.25,-4.87464 0,-0.93444 -4.33762,-5.94439 -9.63913,-11.13324 -5.30154,-5.18884 -12.36017,-12.25952 -15.68585,-15.71264 -5.47464,-5.68451 -5.89929,-6.42585 -4.48883,-7.83634 0.85684,-0.85681 2.46567,-1.40652 3.57516,-1.22152 1.10953,0.18496 8.89716,7.01864 17.30585,15.18591 8.40872,8.16736 15.85187,15.06586 16.54034,15.33008 0.68851,0.26416 4.32096,-2.07215 8.07212,-5.19184 3.75119,-3.11969 9.52032,-7.50921 12.82034,-9.75451 3.3,-2.2453 8.02499,-5.84909 10.5,-8.00836 2.47501,-2.15928 5.81738,-4.60859 7.42752,-5.44294 2.69547,-1.39676 3.03407,-1.37124 4.27207,0.32181 0.7395,1.01132 1.10166,2.52667 0.80481,3.36746 -0.29685,0.84079 -1.85433,2.65369 -3.46105,4.02869 -1.60672,1.375 -5.6879,4.52502 -9.06927,7 -3.3814,2.47498 -8.24636,6.26562 -10.81104,8.42358 -2.56468,2.15802 -6.06221,4.75257 -7.77229,5.76575 -1.71009,1.01318 -3.90683,2.72351 -4.88169,3.80066 -1.72467,1.90576 -1.4523,2.28302 10.10926,14.00415 7.65538,7.76099 11.88168,12.80005 11.88168,14.16675 0,1.16662 -0.77727,2.61145 -1.72725,3.21069 -1.42374,0.89807 -2.5544,0.30219 -6.43445,-3.39105 -2.58896,-2.46429 -8.29167,-8.19305 -12.67268,-12.73053 -4.38101,-4.53748 -8.6261,-8.25 -9.43353,-8.25 -0.80744,0 -2.90216,1.23755 -4.655,2.75 -1.75281,1.51251 -7.11038,5.67505 -11.90573,9.25 -4.79532,3.57501 -10.39563,7.75134 -12.44507,9.28076 -2.04947,1.52936 -4.62628,3.41602 -5.72629,4.19245 -1.10001,0.77642 -2.71539,1.6831 -3.58978,2.01477 z M -276.51215,569 c -0.79296,0 -2.20172,-1.15985 -3.13058,-2.57751 -1.27548,-1.94654 -1.45963,-3.22925 -0.75241,-5.24024 0.51507,-1.4646 1.7363,-2.81683 2.71384,-3.00513 0.97757,-0.18823 2.43075,0.19995 3.22934,0.8628 0.79858,0.66272 1.45196,2.30444 1.45196,3.64831 0,1.34375 -0.46585,3.31366 -1.03519,4.37751 -0.56936,1.06384 -1.68399,1.93426 -2.47696,1.93426 z m 150.98095,-19 c -0.67316,0 -1.76616,-0.65338 -2.42893,-1.45196 -0.66276,-0.79853 -1.05536,-2.06818 -0.87245,-2.82136 0.18292,-0.75317 1.45758,-2.77478 2.83258,-4.49243 1.375,-1.71765 5.97732,-6.80005 10.22739,-11.29419 7.72741,-8.17126 7.72741,-8.17126 8,-25.80566 C -107.5,486.5 -107.5,486.5 -104.5,486.5 c 3,0 3,0 3.26788,16.5 0.26789,16.5 0.26789,16.5 3.964206,22 2.03299,3.02502 5.872528,8.15393 8.532349,11.39758 3.062561,3.7348 4.725891,6.66852 4.535766,8 -0.202789,1.42029 -1.143951,2.20044 -2.90094,2.40442 -1.940612,0.22534 -3.336639,-0.5686 -5.5,-3.12805 -1.594604,-1.8866 -4.613739,-5.95996 -6.709228,-9.052 C -101.40546,531.52991 -103.50555,529 -103.97684,529 c -0.47128,0 -5.23843,4.72498 -10.59369,10.5 -5.35522,5.77502 -10.28753,10.5 -10.96067,10.5 z M 26.739014,545.73499 C 9.43335,545.69702 0.686646,545.32092 0.090302,544.58923 -0.428253,543.953 -0.385468,539.96527 0.193176,535 0.738037,530.32501 1.029938,517.05005 0.841888,505.50009 0.5,484.50018 0.5,484.50018 6,483.78964 c 3.024994,-0.39084 14.343536,-0.69763 25.152313,-0.68179 13.655243,0.02 20.152619,0.39462 21.29184,1.22766 1.456512,1.065 1.635681,4.48398 1.604797,30.62457 -0.0191,16.18415 -0.375427,29.74195 -0.791839,30.12854 -0.416413,0.3866 -12.349549,0.67743 -26.518097,0.64637 z M 38.5,538.41882 c 0.549988,-0.0737 0.945465,-0.82544 0.878784,-1.67041 -0.06668,-0.84497 -2.704864,-4.73401 -5.86264,-8.64233 C 30.358368,524.19775 27.435944,521 27.021881,521 c -0.414062,0 -3.571167,3.40723 -7.015808,7.57153 -3.670959,4.43799 -5.893707,7.9408 -5.370758,8.46381 0.490723,0.49072 5.836029,1.0329 11.878448,1.20489 6.04242,0.172 11.436249,0.25232 11.986237,0.17859 z M 46.218323,531 C 46.648254,531 47,523.53748 47,514.41669 c 0,-9.12085 -0.376007,-16.43335 -0.835571,-16.25 -0.459534,0.18332 -3.639496,3.60614 -7.066529,7.60623 -3.970153,4.63403 -6.11615,7.98343 -5.914459,9.23111 0.174103,1.07702 3.002289,5.1167 6.284882,8.97705 3.282562,3.86041 6.320068,7.01892 6.75,7.01892 z m -31.691925,-7.54651 c 2.988189,-3.27441 5.72464,-7.00061 6.081054,-8.28052 0.504029,-1.80993 -0.149047,-3.14331 -2.938781,-6.00024 -1.972779,-2.02029 -4.717469,-5.20572 -6.099366,-7.07877 -1.71582,-2.32568 -2.658081,-2.95977 -2.971618,-1.99975 -0.252503,0.77319 -0.50586,7.00317 -0.563019,13.84439 -0.057159,6.84118 0.157684,13.12024 0.477386,13.95349 0.428589,1.11682 2.008728,-0.0493 6.014344,-4.4386 z M -110.7551,518 c -1.78714,2.15332 -3.40475,2.98859 -4.74774,3.2453 -1.34295,0.25671 -3.46271,-0.0422 -4.7106,-0.66437 -1.24786,-0.62213 -2.41808,-1.906 -2.60046,-2.85315 -0.20697,-1.0747 0.5605,-2.06115 2.04174,-2.62426 1.30536,-0.49634 3.57438,-0.67286 5.04224,-0.39222 1.46787,0.28064 3.18768,1.13538 3.82184,1.89942 z m 19.688541,2 c -1.85144,0 -3.236053,-0.625 -3.623962,-1.63593 -0.345276,-0.89972 -0.172699,-2.36224 0.383514,-3.25 0.556183,-0.88775 1.868561,-1.74359 2.916382,-1.90179 1.047821,-0.15826 2.746338,0.32739 3.774506,1.07916 1.55542,1.13739 1.674255,1.73145 0.70755,3.53772 -0.79541,1.48627 -2.106659,2.17084 -4.15799,2.17084 z m -178.478451,-7 c -0.62976,0 -1.90256,-0.83704 -2.82843,-1.86014 -1.32343,-1.46237 -1.46878,-2.42465 -0.67972,-4.5 0.57864,-1.522 1.77637,-2.63986 2.8284,-2.63986 1.00363,0 2.36474,0.54001 3.02475,1.20001 0.66,0.66001 1.20001,2.14499 1.20001,3.29999 0,1.155 -0.54001,2.64001 -1.20001,3.30002 -0.66001,0.66 -1.71524,1.19998 -2.345,1.19998 z m 296.474667,-5 c 0.463867,0 3.481995,-3.21408 6.706879,-7.14243 3.224914,-3.92834 5.992614,-7.86584 6.150482,-8.75 C 40.038666,490.69815 38.462585,490.5 27.000549,490.5 c -11.453125,0 -13.037994,0.19894 -12.787018,1.60495 0.157563,0.88272 2.893372,4.82022 6.07956,8.75 C 23.479309,504.78473 26.465759,508 26.929657,508 Z M 217,425.16965 c -1.375,0.23532 -4.4339,0.26648 -6.79749,0.0693 -3.35662,-0.28006 -4.48498,-0.85174 -5.15393,-2.61117 -0.47107,-1.23893 -1.00036,-5.70133 -1.17627,-9.91642 -0.20703,-4.96023 0.0969,-8.08053 0.86152,-8.84518 0.90856,-0.90851 1.53765,-0.88571 2.72381,0.0987 1.12769,0.93592 1.54236,3.20987 1.54236,8.45765 0,4.2492 0.48956,7.66711 1.20001,8.37753 0.65997,0.66 1.99414,1.20001 2.96478,1.20001 0.97065,0 2.23066,-0.87042 2.80005,-1.93426 0.56934,-1.06385 1.03516,-4.83375 1.03516,-8.37757 0,-4.58609 0.44458,-6.81225 1.54236,-7.72336 1.10748,-0.91913 1.8479,-0.97454 2.62591,-0.19656 0.68702,0.68701 0.92456,4.40695 0.64923,10.16598 -0.23883,4.9954 -0.85797,9.47065 -1.37585,9.94504 -0.51794,0.47437 -2.06665,1.05506 -3.44165,1.29038 z M -282.5,425 c -1.31009,0 -2.66009,-0.45001 -3,-1 -0.33994,-0.54999 -3.10111,-1 -6.13596,-1 -4.76538,0 -5.91653,-0.39862 -8.44097,-2.92307 -2.52485,-2.52487 -2.92307,-3.67526 -2.92307,-8.44424 0,-4.30759 0.5018,-6.10455 2.28299,-8.17529 1.64856,-1.9166 3.54776,-2.79672 6.83429,-3.16715 3.09216,-0.34854 5.55127,0.004 7.67044,1.09998 2.08075,1.07599 3.43076,2.74148 4.05511,5.00278 0.51481,1.86437 0.70096,5.47467 0.41376,8.02288 -0.39694,3.52152 -0.10696,5.09198 1.20856,6.5456 0.95193,1.05188 1.43512,2.39083 1.07379,2.97549 C -279.82239,424.52164 -281.18991,425 -282.5,425 Z m 156.77992,-0.2832 c -0.67105,0.23645 -2.11212,-1.06559 -3.20238,-2.89344 -1.09025,-1.82785 -2.40711,-3.99835 -2.92634,-4.82336 -0.72705,-1.15521 -1.22687,-1.22949 -2.17441,-0.32321 -0.73913,0.70694 -0.9703,2.21289 -0.57901,3.77194 0.4643,1.84988 0.20986,2.76462 -0.88595,3.18509 -0.84551,0.32446 -2.1265,0.10095 -2.84662,-0.49671 -0.96317,-0.79937 -1.19283,-3.40664 -0.86867,-9.86187 0.24236,-4.82639 0.89238,-9.33774 1.4445,-10.02524 0.55211,-0.6875 2.90401,-1.25 5.22641,-1.25 2.83301,0 4.77156,0.60663 5.89084,1.84341 1.20955,1.33655 1.62445,3.46747 1.50893,7.75 -0.0876,3.24863 0.0189,7.43363 0.23672,9.30002 0.24341,2.08554 -0.0742,3.55915 -0.82402,3.82337 z m 473.98192,-2.91855 c -1.06525,0.16406 -2.36609,-0.28595 -2.89075,-1 -0.52465,-0.71402 -1.55828,-3.09824 -2.29687,-5.29825 -0.73859,-2.20001 -2.20502,-6.21137 -3.25867,-8.91415 -1.72662,-4.42899 -1.76343,-5.06653 -0.3728,-6.45716 0.96661,-0.96661 1.87353,-1.18545 2.42804,-0.58584 0.48675,0.52642 1.78979,3.43216 2.89569,6.45715 1.10583,3.02499 2.60174,5.5 3.32422,5.5 0.72253,0 1.78515,-1.84287 2.36145,-4.09528 0.57635,-2.25241 1.79242,-5.1774 2.70251,-6.5 1.2334,-1.79251 1.95124,-2.11966 2.8197,-1.28497 0.7497,0.72049 0.91486,2.45383 0.4632,4.8613 -0.38605,2.05786 -1.4079,5.15399 -2.27075,6.88025 -0.86292,1.72628 -2.10871,4.71371 -2.76849,6.6387 -0.73578,2.14676 -1.94843,3.61533 -3.13648,3.79825 z M -291,418.39661 c 0.82498,-0.2631 2.0625,-1.22098 2.75,-2.1286 0.6875,-0.90766 1.25,-2.94385 1.25,-4.52488 0,-1.58105 -0.46585,-3.74502 -1.03519,-4.80887 -0.6633,-1.2394 -2.09198,-1.93426 -3.97696,-1.93426 -1.9685,0 -3.4057,0.74439 -4.34414,2.25 -0.8635,1.38538 -1.21118,3.72024 -0.90479,6.07599 0.34937,2.68612 1.13272,4.08261 2.62937,4.68747 1.17242,0.47381 2.8067,0.64624 3.63171,0.38315 z M 61.221436,416 c -0.451783,0 -1.361451,-0.54001 -2.021424,-1.20001 C 58.486908,414.08691 58,410.65225 58,406.33517 58,400.09381 57.718231,398.91959 56,398 c -1.100006,-0.58871 -2,-1.75009 -2,-2.58087 0,-1.22592 1.256683,-1.45481 6.670288,-1.21482 4.204559,0.18638 6.822235,0.7555 7.081299,1.53952 0.226044,0.68415 -0.773224,1.6941 -2.220612,2.24439 -2.558838,0.97287 -2.61261,1.16797 -1.945861,7.06128 0.429687,3.79791 0.269775,6.97354 -0.428284,8.50561 C 62.544159,414.89981 61.673218,416 61.221436,416 Z m 418.805234,-0.21671 c -0.3996,0.15583 -1.16656,-0.29415 -1.7044,-1 -0.53785,-0.70581 -1.66156,-3.30828 -2.49714,-5.78329 -0.83557,-2.47501 -2.06878,-6.1919 -2.74047,-8.2598 -0.67164,-2.06787 -1.07795,-4.76788 -0.90296,-6 0.17505,-1.23211 0.97998,-2.2402 1.78876,-2.2402 0.80878,0 2.03369,1.125 2.72198,2.5 0.68836,1.375 1.54023,4.41251 1.89313,6.75 0.35285,2.33749 0.98193,4.25 1.39801,4.25 0.41608,0 1.30261,-2.13751 1.97009,-4.75 0.66748,-2.61249 1.61634,-5.76251 2.10852,-7 0.49219,-1.23749 1.57355,-2.25 2.40296,-2.25 0.82941,0 2.18902,1.62994 3.02142,3.62213 0.8324,1.99216 1.51343,4.8906 1.51343,6.44098 0,1.55035 0.42743,3.08301 0.94983,3.40588 0.5224,0.32288 1.42242,-0.29599 2,-1.37524 C 494.5274,403.0145 495,401.22308 495,400.11279 c 0,-1.11029 0.52222,-3.16485 1.16052,-4.56573 0.63831,-1.40088 1.77741,-2.54706 2.53137,-2.54706 0.75397,0 1.6319,0.68014 1.95087,1.51141 0.31897,0.83127 -0.10065,3.64377 -0.93249,6.25 -0.83185,2.60623 -1.81598,6.19327 -2.18702,7.97123 -0.37097,1.77792 -1.49755,4.24902 -2.50348,5.4913 -1.77941,2.19748 -1.88385,2.20907 -3.85156,0.42831 -1.11236,-1.00671 -2.31982,-3.5903 -2.68329,-5.7413 C 488.12152,406.75992 487.42957,405 486.94727,405 c -0.4823,0 -1.34272,0.87042 -1.91211,1.93426 -0.56934,1.06385 -1.03516,2.80875 -1.03516,3.87757 0,1.06878 -0.73053,2.56088 -1.62341,3.31573 -0.89289,0.75482 -1.95038,1.49994 -2.34992,1.65573 z m -491.585538,-1.78701 c -1.132386,0.002 -2.881806,-0.59803 -3.887604,-1.33347 -1.005799,-0.73547 -1.61554,-1.97296 -1.35495,-2.75 0.284576,-0.84866 1.836944,-1.41281 3.887604,-1.41281 2.531341,0 3.413818,-0.43457 3.413818,-1.68118 0,-0.92466 -1.575012,-2.74011 -3.5,-4.03437 -2.001556,-1.3457 -3.645508,-3.36813 -3.839874,-4.72387 -0.18692,-1.30387 0.11383,-3.36643 0.668335,-4.58344 0.562561,-1.23468 2.237457,-2.44775 3.789245,-2.74438 1.529602,-0.29242 3.816346,-0.13803 5.081665,0.34305 1.265351,0.48108 2.300629,1.59304 2.300629,2.471 0,1.15274 -0.764191,1.50696 -2.75,1.27475 -2.178375,-0.25473 -2.75,0.088 -2.75,1.6489 0,1.09921 1.0979,2.51782 2.482971,3.20837 1.365631,0.68085 3.053131,2.01764 3.75,2.97068 0.696869,0.953 1.267029,3.00335 1.267029,4.55633 0,2.1124 -0.818542,3.32263 -3.25,4.80512 -1.787506,1.08987 -4.176483,1.98324 -5.308868,1.98532 z m -120.680752,-3.19092 c 0.86563,-0.16794 1.7611,-0.86762 1.98991,-1.55484 0.22882,-0.6872 -0.32664,-1.53446 -1.23434,-1.88278 -0.90772,-0.34833 -2.12093,-0.16275 -2.69603,0.41235 -0.57511,0.5751 -0.72791,1.55978 -0.33956,2.18814 0.38837,0.62839 1.41437,1.0051 2.28002,0.83713 z M -282,392.52466 c -4.125,0.18591 -8.85001,0.0103 -10.5,-0.39032 -1.64999,-0.40061 -4.62338,-1.47394 -6.60751,-2.38522 -1.98413,-0.91129 -5.91867,-4.18564 -8.74338,-7.27637 -3.64795,-3.9914 -5.63709,-7.26407 -6.86581,-11.29611 -0.95145,-3.12214 -1.71378,-7.92664 -1.6941,-10.67664 0.0197,-2.75 0.84265,-7.54254 1.82877,-10.65012 0.98614,-3.10754 3.20801,-7.35238 4.9375,-9.43298 1.72949,-2.08057 3.28995,-4.37518 3.46771,-5.09912 0.17774,-0.72394 -0.65823,-2.55411 -1.85769,-4.06702 -1.1995,-1.51291 -2.53553,-3.66925 -2.969,-4.79187 -0.43347,-1.12259 -1.51001,-2.6402 -2.39233,-3.37243 -0.8823,-0.73224 -1.60416,-1.80332 -1.60416,-2.38016 0,-0.57684 -0.70874,-1.83197 -1.57495,-2.78913 -0.88468,-0.97753 -1.43253,-2.98434 -1.25,-4.57873 0.25677,-2.24307 0.8306,-2.83844 2.73556,-2.83844 1.9011,0 3.32294,1.46637 6.72657,6.9371 2.37378,3.8154 5.56399,8.43622 7.08938,10.2685 2.77344,3.33139 2.77344,3.33139 7.68238,1.81289 2.69989,-0.83517 6.78222,-1.51849 9.07183,-1.51849 2.28962,0 6.38062,0.75311 9.0911,1.67358 2.71048,0.92051 6.18097,2.43244 7.71225,3.35987 1.53125,0.92743 4.35141,3.51733 6.26703,5.75528 1.91562,2.23797 4.36538,6.01355 5.44394,8.39016 1.48828,3.27948 1.96628,6.5535 1.98294,13.582 0.0173,7.29355 -0.41493,10.19037 -2.03464,13.63614 -1.13113,2.40638 -3.61023,6.19028 -5.50909,8.40869 -1.89887,2.21839 -5.58591,5.23664 -8.19339,6.70719 -3.70841,2.09143 -6.3743,2.74734 -12.24091,3.01175 z M -121.42246,392 c -0.64764,0 -1.71754,-0.54001 -2.37754,-1.20001 -0.84796,-0.84796 -1.2,-6.698 -1.2,-19.94098 0,-10.97281 -0.40033,-18.98841 -0.96579,-19.33786 -0.53119,-0.32831 -3.34369,0.13266 -6.25,1.02432 -2.90631,0.89169 -7.04466,2.59625 -9.19633,3.7879 -2.15168,1.19165 -4.38277,2.9278 -4.95797,3.8581 -0.79803,1.29068 -0.58191,2.20718 0.91213,3.86801 1.07687,1.19711 2.68046,2.46097 3.56354,2.80856 0.88307,0.34757 3.2713,1.91199 5.30717,3.47644 2.59543,1.99448 3.60979,3.48865 3.39443,5 -0.21508,1.50919 -1.129,2.25012 -3.04796,2.47104 -2.01593,0.23209 -4.32605,-0.90427 -8.73473,-4.29669 -3.29666,-2.53671 -7.12581,-6.09616 -8.50922,-7.90991 -1.38339,-1.81372 -2.51527,-4.45441 -2.51527,-5.86814 0,-1.91739 1.20682,-3.44378 4.75,-6.0079 2.6125,-1.89056 5.71181,-3.67352 6.88736,-3.96207 1.17554,-0.28857 3.42554,-1.20022 5,-2.02591 1.57445,-0.82568 3.98764,-1.96527 5.36264,-2.53241 1.375,-0.56714 3.28751,-1.2828 4.25,-1.59042 0.96249,-0.30762 1.74138,-0.91092 1.73084,-1.3407 -0.0105,-0.42975 -4.09783,-4.60638 -9.08286,-9.28137 -4.98503,-4.67499 -12.50159,-11.83243 -16.70348,-15.9054 -5.60008,-5.42825 -7.64709,-8.09808 -7.66714,-10 -0.0224,-2.12588 0.43623,-2.5946 2.53894,-2.5946 1.93425,0 6.17752,3.44632 17.22864,13.99289 8.06428,7.69607 15.12194,14.14606 15.6837,14.33331 0.66028,0.22009 1.02136,-4.26181 1.02136,-12.67776 0,-7.16004 0.43886,-14.17255 0.97525,-15.58335 0.53639,-1.41079 1.60629,-2.56509 2.37756,-2.56509 0.77127,0 1.91297,0.61533 2.53714,1.3674 0.80661,0.97192 1.13764,13.58786 1.1445,43.62094 0.007,30.26868 -0.31494,42.64472 -1.13482,43.6326 -0.62949,0.75849 -1.67441,1.37906 -2.32209,1.37906 z M -285,385.9389 c 2.47501,0.009 6.52499,-0.8984 9,-2.01745 2.47501,-1.11902 6.01746,-3.47165 7.8721,-5.22803 1.85468,-1.75638 4.20728,-4.99341 5.22806,-7.19342 1.20761,-2.60275 1.86359,-6.31522 1.87787,-10.62787 0.0127,-3.8259 -0.65149,-8.26486 -1.57105,-10.5 -0.87616,-2.12967 -2.78866,-5.16064 -4.25,-6.73547 -1.46133,-1.57486 -4.27548,-3.89945 -6.25363,-5.16574 -1.97815,-1.2663 -5.68762,-2.61594 -8.24332,-2.99918 -2.55566,-0.38327 -6.24835,-0.39636 -8.20593,-0.0291 -1.95755,0.36724 -3.83218,1.37906 -4.1658,2.24847 -0.33362,0.86942 -0.0817,2.30707 0.55981,3.19482 0.64151,0.88773 1.70014,2.73908 2.35251,4.11408 0.65235,1.375 1.8078,3.24771 2.56769,4.16156 0.75989,0.91388 1.23538,2.93503 1.05664,4.49145 -0.19168,1.66919 -1.00677,2.95908 -1.98727,3.14487 -0.94635,0.17932 -2.77143,-1.1091 -4.2374,-2.99145 -1.41626,-1.81855 -3.61111,-4.88144 -4.87747,-6.80643 -1.26636,-1.92499 -2.92142,-3.5 -3.67789,-3.5 -0.75647,0 -2.52762,2.02499 -3.93591,4.5 -2.20358,3.87271 -2.55624,5.68484 -2.53003,13 0.0273,7.61746 0.32169,8.93765 2.83545,12.715 1.54275,2.31826 4.32721,5.37603 6.18765,6.79507 1.86044,1.41904 4.84857,3.21716 6.64026,3.99585 1.79172,0.77869 5.28265,1.42352 7.75766,1.43298 z M 478.42242,383 c -0.64764,0 -1.68914,-0.61643 -2.31439,-1.36984 -0.80859,-0.97428 -1.06055,-10.40042 -0.87243,-32.64145 0.2326,-27.50739 0.45867,-31.39411 1.87848,-32.28931 0.88775,-0.55972 2.35021,-0.7352 3.25,-0.38992 1.46716,0.56299 1.63592,3.91162 1.63592,32.45914 0,23.4244 -0.31696,32.14831 -1.20001,33.03137 -0.65998,0.66 -1.72986,1.20001 -2.37757,1.20001 z m -87.71649,-1.18884 c -0.86883,0.17114 -2.23834,-0.72885 -3.04333,-2 -0.805,-1.27112 -2.66046,-5.23615 -4.12323,-8.81116 -1.46283,-3.57501 -3.54193,-9.20886 -4.62036,-12.51968 -1.07837,-3.31086 -2.85529,-7.49082 -3.94873,-9.28882 -1.9881,-3.26911 -1.9881,-3.26911 -10.65088,-2.98029 -8.43311,0.28113 -8.71051,0.36835 -10.45929,3.28879 -0.98798,1.64999 -2.40375,4.35001 -3.14606,6 -0.74231,1.64999 -2.13928,5.02499 -3.10443,7.5 -0.96515,2.47501 -2.50214,5.625 -3.41547,7 -0.91333,1.375 -2.4367,4.19437 -3.38531,6.26523 -0.94861,2.07089 -2.45355,4.04492 -3.3443,4.38675 -0.89081,0.34182 -2.29859,-0.0574 -3.12842,-0.88727 -0.82983,-0.82984 -1.3515,-2.35385 -1.15924,-3.38675 0.19226,-1.03287 2.92688,-7.18289 6.07703,-13.66672 3.15008,-6.48379 6.00543,-12.8963 6.34515,-14.25 0.61493,-2.4501 0.58398,-2.46124 -6.83569,-2.46124 -6.29651,0 -7.74775,-0.32523 -9.34967,-2.0954 -1.86799,-2.06409 -1.86219,-2.12304 0.39087,-3.94745 1.7492,-1.41641 3.39373,-1.73938 6.99133,-1.37307 2.58728,0.26342 6.93487,0.12448 9.66137,-0.30881 4.95728,-0.78775 4.95728,-0.78775 10.5,-11.73374 3.04853,-6.02026 6.31,-11.4024 7.24781,-11.96029 1.30981,-0.77921 2.28052,-0.4737 4.18774,1.31808 1.36554,1.28281 3.20856,4.19275 4.0957,6.46652 0.88715,2.27381 2.50129,6.15915 3.58704,8.63416 1.08576,2.47501 2.34833,5.17499 2.80573,6 0.64367,1.16092 3.29431,1.5647 11.72522,1.78616 8.16314,0.21442 11.26947,0.66919 12.39349,1.81452 1.33582,1.36108 1.24164,1.74017 -0.86078,3.46383 -1.89349,1.55237 -3.92859,1.93549 -10.28137,1.93549 -5.71497,0 -8.06445,0.37479 -8.43707,1.34589 -0.28406,0.74023 1.59484,6.70272 4.17535,13.25 2.58051,6.54727 5.18005,13.15304 5.77667,14.67956 0.78009,1.9957 0.77979,3.25992 -10e-4,4.5 -0.59729,0.94849 -1.79687,1.86456 -2.66571,2.03571 z m -402.066129,-3.98725 c -0.905212,0.17813 -1.854065,-0.27185 -2.108551,-1 -0.254486,-0.72815 -0.590637,-11.14837 -0.746979,-23.15603 -0.264007,-20.27616 -0.422607,-21.93317 -2.225403,-23.25 C -17.508759,329.63803 -20.335388,329 -22.722504,329 c -3.030334,0 -4.522979,-0.47611 -4.945617,-1.57754 -0.332947,-0.86765 0.01868,-2.19279 0.781372,-2.94477 0.762726,-0.75198 3.636749,-1.50458 6.386749,-1.67245 5,-0.30524 5,-0.30524 5.681152,-5.80524 0.374665,-3.02499 0.467957,-6.95621 0.207337,-8.73599 -0.26062,-1.77979 0.02579,-4.16959 0.636474,-5.31067 0.712281,-1.3309 1.892762,-1.96332 3.292694,-1.76404 2.0542,0.29245 2.19925,0.89783 2.470398,10.3107 0.197541,6.85776 0.723084,10.43576 1.672455,11.38675 0.761414,0.7627 2.109986,1.10831 2.996796,0.76801 1.420929,-0.54526 1.443481,-0.88807 0.189941,-2.88675 -0.960724,-1.5318 -1.348266,-4.63935 -1.193878,-9.57328 0.16803,-5.36956 0.685303,-7.75433 1.952118,-9 1.621826,-1.59472 1.837769,-1.55542 3.659027,0.66605 C 2.548859,304.67129 3,306.77545 3,311.88828 c 0,4.49615 -0.521576,7.41137 -1.60199,8.95388 -0.881103,1.25794 -1.443603,2.43991 -1.25,2.62659 0.193604,0.18668 1.431031,0.49509 2.749848,0.68533 1.318847,0.19025 2.88623,1.12497 3.483062,2.07715 0.821412,1.31046 0.724701,2.0882 -0.397857,3.19986 C 5.098969,330.30658 2.076782,331.02093 -1.5,331.19986 -7.5,331.5 -7.5,331.5 -7.725647,353 c -0.124115,11.82501 -0.622345,22.17499 -1.107208,23 -0.484833,0.82501 -1.622132,1.64575 -2.527344,1.82391 z m 62.872101,-0.0369 c -0.624207,0.15786 -1.988312,-0.65598 -3.031372,-1.80854 -1.347809,-1.48931 -1.619324,-2.53039 -0.938477,-3.59863 0.526856,-0.82669 3.882935,-3.51239 7.457947,-5.9682 3.575012,-2.45581 9.649994,-6.53702 13.5,-9.06933 3.850006,-2.53232 8.185822,-5.78278 9.635132,-7.22327 2.455993,-2.44104 2.713013,-3.57065 3.78125,-16.61905 0.630371,-7.70001 1.244568,-16.8782 1.364868,-20.39603 0.158264,-4.62704 0.665161,-6.67624 1.832825,-7.40915 0.887756,-0.55722 2.395416,-0.71328 3.350372,-0.34683 1.587647,0.60922 1.690704,2.21359 1.203583,18.74017 -0.460846,15.63581 -0.334442,17.99781 0.937103,17.50986 0.808411,-0.31021 3.140472,-1.84787 5.182343,-3.41699 2.0419,-1.56912 7.987514,-5.72958 13.212524,-9.24542 5.27445,-3.54913 10.612,-6.40207 12,-6.41403 1.80902,-0.0156 2.58511,0.57574 2.80792,2.13958 0.21033,1.47632 -0.74035,2.98157 -3,4.75013 -1.81936,1.42391 -7.35791,5.42056 -12.30792,8.88144 -4.95001,3.46084 -12.149994,8.49645 -16,11.19024 -3.850006,2.69376 -8.960815,6.2746 -11.357361,7.9574 -2.396545,1.6828 -5.39566,3.73462 -6.664673,4.55963 -1.269043,0.82501 -4.933227,3.26395 -8.142669,5.41989 -3.209412,2.15595 -7.602265,5.30594 -9.761872,7 -2.159607,1.69406 -4.437286,3.20926 -5.061523,3.36713 z m 133.733638,-1.96689 c -1.39361,0.19791 -2.49743,-0.31302 -2.8908,-1.33801 -0.34992,-0.91199 -0.19208,-3.08106 0.35083,-4.82013 0.5429,-1.73911 3.27734,-7.66199 6.07641,-13.16199 2.79914,-5.5 7.48169,-13.14999 10.4057,-17 2.92395,-3.85001 7.50379,-8.46249 10.17737,-10.25 3.60004,-2.40695 5.97443,-3.25 9.15344,-3.25 2.52485,0 6.04364,0.92654 8.54486,2.25 2.57569,1.36282 6.00324,4.61581 8.69281,8.25 2.44226,3.29999 6.17359,9.60001 8.29187,14 2.11829,4.39999 4.76331,10.02499 5.87775,12.5 1.1145,2.47501 2.14966,6.0119 2.30029,7.85974 0.193,2.36707 -0.26165,3.69666 -1.53869,4.5 -1.47303,0.92661 -2.12885,0.75406 -3.5,-0.92087 -0.9281,-1.1336 -3.18683,-5.85861 -5.01953,-10.5 -1.83271,-4.64139 -3.72828,-9.11386 -4.21235,-9.93887 -0.48406,-0.82501 -1.88067,-3.42007 -3.10351,-5.76685 -1.22284,-2.34677 -4.30371,-6.5896 -6.84638,-9.42849 -3.5487,-3.96207 -5.43365,-5.25623 -8.1109,-5.56879 -3.01709,-0.35223 -4.19287,0.22668 -8.71124,4.28909 -2.87292,2.58298 -6.90192,7.21054 -8.95343,10.28354 -2.05151,3.07297 -6.20502,10.5607 -9.23004,16.63938 -4.30469,8.65014 -5.98999,11.1217 -7.75446,11.37225 z M -20,371.72366 c -0.825012,0.13333 -2.287506,-0.22232 -3.25,-0.79031 -1.55304,-0.9165 -1.75,-2.87033 -1.75,-17.3606 0,-13.05362 0.291168,-16.56951 1.451965,-17.53289 0.798584,-0.66275 2.228699,-1.05536 3.17807,-0.87244 0.949372,0.18292 2.028687,1.46396 2.398499,2.84677 0.369812,1.38278 0.54422,7.00778 0.387634,12.5 -0.156616,5.49219 -0.426819,12.4566 -0.600464,15.47644 -0.226226,3.93439 -0.740875,5.55933 -1.815704,5.73303 z m 384.74121,-0.9125 c -0.88824,0.17114 -2.39294,-0.87622 -3.34387,-2.32749 -1.31287,-2.00372 -1.50372,-3.28174 -0.79303,-5.31115 0.56885,-1.62424 1.81,-2.7978 3.16418,-2.99186 1.61066,-0.23083 2.48902,0.36643 3.16889,2.15467 0.51733,1.36072 0.5982,3.75442 0.17969,5.31936 -0.41846,1.56491 -1.48761,2.98532 -2.37586,3.15647 z M 515,364 c -1.22504,0 -2.51306,-1.03189 -3.21735,-2.57767 -0.85186,-1.86969 -0.87664,-3.03699 -0.0901,-4.25 0.59638,-0.91977 1.86524,-1.60055 2.81971,-1.51282 0.95446,0.0877 2.43451,0.85862 3.28894,1.71308 1.26117,1.26114 1.336,2.031 0.39764,4.09048 C 517.51044,362.97388 516.21655,364 515,364 Z M -1.599915,362.70312 c -0.60495,0.19993 -1.648162,-0.29711 -2.318237,-1.10449 -0.670074,-0.8074 -1.075104,-2.95987 -0.900085,-4.78329 0.263061,-2.74066 0.732696,-3.31534 2.709259,-3.31534 1.315063,0 2.890045,0.79138 3.5,1.75864 0.842285,1.33569 0.74823,2.39862 -0.391022,4.41983 -0.825012,1.46365 -1.994965,2.82473 -2.599915,3.02465 z M 502.44238,363 c -0.72198,0 -2.48834,-1.6875 -3.92535,-3.75 -1.43695,-2.0625 -4.87152,-7.24445 -7.63239,-11.51541 -3.0971,-4.79123 -4.89807,-8.62131 -4.70214,-10 0.19873,-1.39887 1.12609,-2.34979 2.47955,-2.5426 1.61847,-0.2306 3.00122,0.89526 5.5,4.47836 1.83587,2.63254 3.56293,5.25586 3.83795,5.82965 0.27502,0.57379 1.90088,3.0585 3.61298,5.52164 1.71215,2.4631 3.43682,5.51245 3.83264,6.77633 0.42675,1.36277 0.22918,2.88895 -0.48548,3.75 C 504.29736,362.34659 503.16437,363 502.44238,363 Z M 364.34619,339 c 1.87488,0 3.92664,-0.62378 4.55939,-1.3862 0.88153,-1.0622 0.70801,-2.51251 -0.74243,-6.20492 -1.04102,-2.65033 -2.34992,-4.97114 -2.90863,-5.15739 -0.55872,-0.18621 -1.32502,0.91849 -1.70288,2.45496 -0.37793,1.53644 -1.36579,3.84241 -2.19538,5.12433 -0.82953,1.28195 -1.26318,2.96945 -0.96362,3.75 0.32294,0.84158 1.93213,1.41922 3.95355,1.41922 z M -19.967468,313 c -0.3974,0 -1.503174,-0.86258 -2.457245,-1.91681 -1.404663,-1.55215 -1.516419,-2.32468 -0.587341,-4.0607 0.745513,-1.39297 1.911743,-2.03503 3.329711,-1.83319 1.397065,0.19891 2.299927,1.14014 2.509095,2.61575 0.179718,1.26776 -0.21286,2.95526 -0.872437,3.75 C -18.705231,312.34976 -19.570038,313 -19.967468,313 Z m 556.517148,-6 c -0.79767,0 -1.86835,-0.74704 -2.37933,-1.6601 -0.51099,-0.91305 -0.70606,-5.52557 -0.43353,-10.25 0.29235,-5.06784 1.03308,-9.16043 1.80651,-9.98135 0.90204,-0.9574 2.60566,-1.21777 5.46143,-0.83475 2.28278,0.30619 5.01556,1.33957 6.07288,2.29645 1.24194,1.12396 1.92236,3.05991 1.92236,5.46973 0,2.86099 -0.57428,4.10626 -2.46484,5.345 -1.35566,0.88827 -3.29065,1.61502 -4.29999,1.61502 -1.00934,0 -2.37518,0.54001 -3.03516,1.20001 C 538.53998,300.85998 538,302.66 538,304.20001 538,305.97958 537.47144,307 536.54968,307 Z M 400,304.33136 c -2.03381,0.34552 -4.43066,0.0781 -5.72156,-0.63831 -1.22186,-0.67813 -2.89502,-2.12399 -3.7182,-3.21301 -0.88,-1.16424 -1.50976,-4.17013 -1.52844,-7.29578 -0.0175,-2.92367 0.43152,-6.18151 0.99786,-7.23965 0.56629,-1.05813 2.34394,-2.60358 3.95032,-3.43427 C 395.58636,281.67966 398.07037,281 399.5,281 c 1.42963,0 3.91046,0.67801 5.51294,1.50668 2.08215,1.07675 3.23456,2.69873 4.03845,5.68424 0.61871,2.29764 0.86878,5.45831 0.55567,7.02371 -0.31305,1.56537 -1.03803,3.72214 -1.61103,4.79285 -0.57306,1.07068 -1.81903,2.34777 -2.76892,2.83798 -0.94995,0.4902 -3.30212,1.15887 -5.22711,1.4859 z M 398.19019,301 c 0.48407,0 1.98931,-0.72675 3.34497,-1.61502 1.87713,-1.22992 2.46484,-2.48825 2.46484,-5.2775 0,-2.01434 -0.7005,-4.6626 -1.5567,-5.88498 -0.8562,-1.22238 -2.28327,-2.2225 -3.17127,-2.2225 -0.888,0 -2.4375,0.74475 -3.4433,1.655 -1.19335,1.07998 -1.82873,3.05035 -1.82873,5.67123 0,2.33386 0.6933,4.78235 1.65497,5.84503 0.91028,1.0058 2.05108,1.82874 2.53522,1.82874 z m 142.66094,-6.49106 c 0.90687,-0.34509 2.03718,-1.01157 2.51172,-1.48105 0.47461,-0.46951 0.56055,-1.34283 0.19098,-1.94076 C 543.18433,290.4892 541.99438,290 540.90961,290 c -1.08484,0 -2.22315,0.65344 -2.52961,1.45212 -0.30645,0.79864 -0.24682,1.95434 0.13251,2.56817 0.3794,0.61383 1.43176,0.83371 2.33862,0.48865 z m -851.97531,-4.72281 c -0.89331,0.17163 -1.90579,-0.42184 -2.25,-1.31881 -0.3442,-0.89701 -0.61892,-5.30658 -0.6105,-9.79911 0.008,-4.49252 0.44559,-8.8432 0.97153,-9.66821 0.7381,-1.15787 1.36187,-1.24881 2.73468,-0.39871 1.0267,0.63574 1.88681,2.5379 2.03476,4.5 0.14093,1.86929 -0.084,6.31787 -0.5,9.88574 -0.55906,4.79517 -1.1799,6.56842 -2.38047,6.7991 z M 282.45502,289 c -0.62976,0 -1.81556,-0.78751 -2.63514,-1.75 -0.81951,-0.96249 -2.50097,-3.4375 -3.73651,-5.5 -1.23559,-2.0625 -2.63513,-3.75 -3.11016,-3.75 -0.47498,0 -1.0008,2.13751 -1.1684,4.75 -0.25549,3.98175 -0.6283,4.75 -2.30481,4.75 -1.83997,0 -2.02264,-0.76111 -2.28339,-9.51324 -0.20337,-6.8284 0.1012,-10.03916 1.07923,-11.37662 1.10577,-1.5123 1.75103,-1.65543 3.42492,-0.75959 1.13434,0.60709 3.25519,3.13907 4.71302,5.62662 1.45776,2.48755 3.08154,4.52283 3.60839,4.52283 0.5268,0 0.95783,-1.99844 0.95783,-4.44098 0,-2.44253 0.46973,-4.73129 1.04382,-5.08609 0.5741,-0.3548 1.6991,-0.10126 2.5,0.56342 1.08136,0.89746 1.45618,3.57092 1.45618,10.38611 0,5.80474 -0.44098,9.61856 -1.20001,10.37753 -0.65998,0.66 -1.71527,1.20001 -2.34497,1.20001 z M -146.5,282 c -1.24031,0 -2.76637,-0.61603 -3.39123,-1.36896 -0.88039,-1.06079 -0.67646,-1.67981 0.90596,-2.75 1.71569,-1.16031 2.06144,-2.52911 2.16314,-8.56384 0.0666,-3.95056 0.49097,-7.77554 0.94312,-8.5 0.62327,-0.99866 1.25215,-1.04886 2.60054,-0.20752 1.49835,0.93491 1.75961,2.46912 1.65872,9.7406 -0.0732,5.27679 -0.60655,9.21747 -1.37244,10.14032 -0.68898,0.83017 -2.2675,1.5094 -3.50781,1.5094 z m 119.055939,-3.04642 c -1.156525,0.95984 -1.685364,0.81204 -2.656037,-0.74228 -0.666626,-1.06738 -1.319091,-5.71411 -1.449951,-10.32602 -0.164215,-5.78772 0.164185,-8.80914 1.06012,-9.7536 0.713898,-0.75259 1.818939,-1.04638 2.455658,-0.65286 0.636688,0.39349 1.597168,1.87152 2.134399,3.28452 0.976746,2.56903 0.976746,2.56903 3.760834,-0.76584 1.664001,-1.99323 3.257812,-3.04215 3.961548,-2.60718 0.647613,0.40024 1.17749,1.5227 1.17749,2.49438 0,0.97168 -1.125,2.82355 -2.5,4.1153 -1.375,1.29175 -2.5,3.09174 -2.5,4 0,0.90826 1.125,2.70825 2.5,4 1.375,1.29175 2.5,3.39517 2.5,4.67432 0,1.64996 -0.574371,2.32568 -1.976959,2.32568 -1.087311,0 -2.714051,-1.125 -3.61499,-2.5 -0.90094,-1.375 -2.036316,-2.5 -2.523072,-2.5 C -25.601746,274 -26,274.84491 -26,275.87756 c 0,1.03266 -0.649811,2.41684 -1.444061,3.07602 z M 404,278 c -0.96533,0 -2.25604,-0.60358 -2.86829,-1.34128 -0.61224,-0.73773 -1.03546,-4.16153 -0.94043,-7.60843 0.15339,-5.56558 -0.0995,-6.47638 -2.25927,-8.13647 -1.33759,-1.02814 -3.06543,-1.87937 -3.83966,-1.89157 -0.77417,-0.0122 -3.79218,-1.86191 -6.70661,-4.11042 -2.91449,-2.24847 -6.3916,-5.96096 -7.72699,-8.25 -1.33539,-2.289 -3.19366,-6.41183 -4.12951,-9.16183 -0.93586,-2.75 -1.95343,-7.38849 -2.26123,-10.30774 -0.30787,-2.91925 0.002,-7.86926 0.68847,-11 0.68653,-3.13074 2.33954,-7.97327 3.67346,-10.76111 1.33387,-2.7879 4.42572,-7.03216 6.87073,-9.43182 2.44507,-2.3996 6.82013,-5.3642 9.72241,-6.58801 5.25928,-2.21759 5.27777,-2.24128 5.54132,-7.06818 0.14539,-2.66376 0.69825,-5.85565 1.22858,-7.09314 0.53027,-1.23749 1.78381,-2.25 2.78558,-2.25 1.00177,0 2.36145,0.53998 3.02143,1.20001 0.66003,0.65997 1.20001,3.75775 1.20001,6.88385 0,5.68384 0,5.68384 6.30371,8.81854 3.82037,1.89978 7.67908,4.80164 9.79486,7.36615 1.92011,2.32727 4.72724,6.36866 6.23804,8.98084 2.30975,3.99347 2.84332,6.3305 3.35217,14.68292 0.53009,8.7013 0.31488,10.84116 -1.73486,17.25061 -1.95612,6.11655 -3.27088,8.25165 -8.01318,13.01325 -3.12018,3.1329 -7.87079,6.73782 -10.55695,8.01092 -4.88379,2.3147 -4.88379,2.3147 -5.1842,9.26212 -0.16529,3.82107 -0.78284,7.52868 -1.3725,8.2391 C 406.23749,277.41873 404.96533,278 404,278 Z M 70.346161,277 c -3.125916,0 -4.588287,-0.46735 -5.025208,-1.60602 -0.338958,-0.8833 -0.541931,-5.70624 -0.451019,-10.71759 0.09088,-5.01138 0.610565,-9.55688 1.154816,-10.10113 0.65271,-0.65271 1.482544,-0.49356 2.437927,0.46759 0.94046,0.94616 1.551636,4.08346 1.742859,8.94656 0.258606,6.57715 0.538086,7.53424 2.294464,7.8576 1.100006,0.20252 2.568054,0.8295 3.262329,1.39328 0.949127,0.77073 0.980774,1.36432 0.127564,2.3924 C 75.244141,276.41077 72.855133,277 70.346161,277 Z m 70.400789,-11.19504 c -0.96411,0.18857 -2.03577,-0.39398 -2.38135,-1.29452 -0.34552,-0.90058 -0.23169,-5.77134 0.25305,-10.82392 0.84186,-8.7749 0.98847,-9.18652 3.27234,-9.18652 1.31506,0 2.76221,0.67499 3.21594,1.5 0.45368,0.82501 1.77613,3.69162 2.93872,6.37024 1.17023,2.69607 2.49054,4.48175 2.95758,4 0.46405,-0.47864 1.61847,-2.89523 2.56537,-5.37024 0.9469,-2.47501 2.27381,-5.10135 2.94855,-5.83633 0.67481,-0.73496 2.297,-1.18497 3.60486,-1 2.28766,0.32354 2.38898,0.69445 2.66785,9.76077 0.22082,7.18057 -0.054,9.76825 -1.15406,10.86835 -0.79413,0.79412 -1.93707,1.13906 -2.53985,0.76651 C 158.49316,265.18677 158,263.10852 158,260.94098 158,258.77344 157.534,257 156.96448,257 c -0.56958,0 -1.91785,2.05832 -2.99622,4.57407 -1.35669,3.16501 -2.46789,4.47421 -3.6073,4.25 -0.90564,-0.17826 -2.00891,-0.99906 -2.45178,-1.82407 -0.44287,-0.82501 -1.39111,-2.81677 -2.10724,-4.42615 -0.71606,-1.6094 -1.90942,-3.12439 -2.65186,-3.36667 -1.03839,-0.3388 -1.26916,0.67838 -1,4.40723 0.28809,3.99097 0.0401,4.90829 -1.40313,5.19055 z M -327,260 c -1.06131,0 -2.39548,-0.87042 -2.96481,-1.93426 C -330.5816,256.91324 -331,247.86429 -331,235.67651 c 0,-18.62347 0.17053,-20.66552 1.9046,-22.80706 1.87702,-2.318 1.935,-2.32459 4,-0.45575 1.79111,1.62091 2.0954,3.04614 2.0954,9.81463 0,6.21179 0.29657,7.84863 1.37616,7.59497 0.7569,-0.17779 3.15997,-1.89831 5.34018,-3.8233 2.18021,-1.92499 7.18591,-6.18573 11.12384,-9.46832 C -298,210.56335 -298,210.56335 -298,205.00421 c 0,-3.41302 0.60098,-6.41724 1.5567,-7.78168 0.85617,-1.22241 2.19034,-2.22253 2.96482,-2.22253 0.77447,0 1.87393,0.87042 2.44329,1.93426 0.59424,1.11036 1.03519,8.99982 1.03519,18.52143 0,16.58719 0,16.58719 -2.52713,17.73862 -1.93887,0.88342 -2.81177,0.86648 -3.75,-0.0728 -0.67258,-0.67331 -1.19,-3.45111 -1.14984,-6.17285 0.0572,-3.87488 -0.26987,-4.94867 -1.50736,-4.94867 -0.8692,0 -4.50207,2.54925 -8.07303,5.66498 -3.57095,3.11572 -8.63015,7.26181 -11.24264,9.21347 -4.75,3.54846 -4.75,3.54846 -4.75,11.40075 0,4.31876 -0.46582,8.72269 -1.03519,9.78654 C -324.60452,259.12958 -325.93869,260 -327,260 Z m 893.41248,-0.20175 c -1.14814,0.16406 -2.53388,-0.28595 -3.07947,-1 -0.54553,-0.71402 -1.85614,-3.09824 -2.91248,-5.29825 -1.05627,-2.20001 -2.14654,-4.67499 -2.42273,-5.5 -0.27618,-0.82501 -2.24945,-4.20001 -4.38495,-7.5 -2.13549,-3.29999 -4.83453,-7.06635 -5.9978,-8.36966 -1.16327,-1.30331 -3.79358,-3.44077 -5.84515,-4.74997 C 539.71832,226.07117 537.05768,225 535.85742,225 c -1.20025,0 -4.3504,1.3913 -7.00036,3.09174 -2.80671,1.80102 -7.17841,6.22793 -10.47229,10.60449 -3.10987,4.13202 -6.75959,9.60327 -8.11048,12.15829 -1.35089,2.55499 -3.15997,5.43299 -4.0202,6.39548 -0.86023,0.96249 -2.17896,1.75 -2.93054,1.75 -0.75153,0 -1.83606,-1.03079 -2.4101,-2.29062 -0.88055,-1.93262 -0.38586,-3.37826 3.16559,-9.25 2.31506,-3.82767 5.59131,-8.98437 7.28058,-11.45938 1.68927,-2.47501 4.85455,-6.4372 7.03387,-8.80487 2.17932,-2.36774 6.28827,-5.40521 9.13099,-6.75 2.84265,-1.34485 6.75762,-2.44513 8.69989,-2.44513 1.94226,0 5.04882,0.64203 6.9035,1.4267 1.85467,0.78466 5.23065,3.37213 7.5022,5.75 2.27154,2.3778 5.6892,6.58181 7.59478,9.34222 1.90558,2.76041 5.13544,8.53955 7.17737,12.84256 2.04193,4.30298 3.57428,8.79446 3.40521,9.98108 -0.18457,1.29529 -1.1416,2.27664 -2.39495,2.45569 z M 267.95502,256 c -0.3548,0 -1.396,-0.82983 -2.31391,-1.84406 -1.4989,-1.65625 -1.64196,-5.18441 -1.40496,-34.64141 0.23602,-29.34143 0.43945,-32.90809 1.93005,-33.84797 1.2088,-0.7622 2.10089,-0.68981 3.25,0.26386 1.38684,1.151 1.5838,5.44043 1.5838,34.492 0,24.47147 -0.31488,33.49247 -1.20001,34.37757 -0.65998,0.66 -1.49024,1.20001 -1.84497,1.20001 z M 398.5,252.66269 c 0.63495,-0.20911 1,-10.52115 1,-28.246 0,-27.79242 -0.009,-27.91639 -2.11884,-27.85138 -1.16534,0.0359 -3.44702,1.16089 -5.07043,2.5 -1.62335,1.33905 -4.43469,4.3977 -6.24744,6.79693 -1.87225,2.47797 -3.87353,6.79737 -4.63318,10 -0.78521,3.31031 -1.09771,7.90833 -0.75689,11.13776 0.31921,3.02502 1.49566,7.75 2.61426,10.5 1.11865,2.75 3.42407,6.51758 5.12323,8.37237 1.69909,1.85483 4.43927,4.21555 6.08929,5.24604 1.65002,1.03052 3.45001,1.72543 4,1.54428 z m -542.41093,-0.90018 c -0.36524,0.14435 -1.20969,-0.28314 -1.87658,-0.95001 -0.87022,-0.87021 -1.21249,-6.93308 -1.21249,-21.4773 0,-19.45056 0.0829,-20.3092 2.06392,-21.36938 1.532,-0.81995 2.43404,-0.79742 3.5,0.0872 1.15942,0.96222 1.43608,4.99762 1.43608,20.94696 0,16.99737 -0.22662,19.94669 -1.62343,21.12756 -0.89288,0.75482 -1.92227,1.49057 -2.2875,1.63495 z m 555.1862,-0.12424 c 1.00439,-0.26266 2.56012,-1.07623 3.45715,-1.80792 0.89704,-0.73169 2.78674,-2.45535 4.19928,-3.83035 1.41254,-1.375 2.80884,-3.17499 3.10285,-4 0.294,-0.82501 1.04846,-2.625 1.67657,-4 0.62805,-1.375 1.625,-4.02966 2.21539,-5.89923 C 426.51697,230.2312 427,226.99066 427,224.8996 c 0,-2.09113 -0.66205,-6.34381 -1.47125,-9.4505 -0.80915,-3.10663 -2.65766,-7.52375 -4.10767,-9.8158 -1.45007,-2.29199 -4.40521,-5.43872 -6.56695,-6.99261 -2.16181,-1.55396 -4.58838,-2.57294 -5.39234,-2.26441 -1.23218,0.47284 -1.46179,4.78058 -1.46179,27.42566 0,14.7756 0.32605,27.1908 0.72455,27.58929 0.39856,0.39853 1.54638,0.50968 2.55072,0.24704 z m 127.15326,-4.98004 c -0.51068,0.15253 -1.71601,-0.18057 -2.67853,-0.74017 -0.96252,-0.5596 -1.75,-1.83997 -1.75,-2.84531 0,-1.00531 0.66925,-2.3833 1.48724,-3.06219 0.818,-0.67886 2.17823,-0.96918 3.02271,-0.64511 0.84448,0.32406 1.82184,1.33557 2.17187,2.2478 0.35004,0.91223 0.19519,2.35815 -0.34411,3.21317 -0.53931,0.85498 -1.39844,1.67932 -1.90918,1.83181 z m -555.969668,-0.86606 c -1.12265,0.16071 -2.360138,-0.0268 -2.75,-0.41665 C -20.68103,244.98566 -21,240.71823 -21,235.89236 c 0,-4.82589 -0.389862,-9.01529 -0.866364,-9.30978 -0.47647,-0.29449 -1.488983,0.24146 -2.25,1.19098 -0.760986,0.94952 -1.833648,2.4483 -2.383636,3.3306 -0.549988,0.88226 -3.674042,4.39129 -6.942322,7.79785 -4.684906,4.88308 -6.483551,6.13067 -8.5,5.89584 -1.897918,-0.22101 -2.539154,-0.86008 -2.48584,-2.47745 0.03952,-1.19876 1.700837,-4.12375 3.691803,-6.5 1.990998,-2.37622 5.93335,-6.98788 8.760773,-10.24813 3.648254,-4.20679 5.019379,-6.56281 4.722656,-8.11506 -0.22998,-1.203 -3.867126,-6.18048 -8.082611,-11.06103 C -40.940063,199.90741 -43,196.77185 -43,194.72986 c 0,-1.62049 0.661926,-3.04663 1.577026,-3.39777 1.039124,-0.3988 3.280823,1.06153 6.572388,4.28137 2.747467,2.68756 6.598023,7.05384 8.556763,9.70276 1.958771,2.64893 3.931213,4.44641 4.383209,3.99439 0.451996,-0.45203 0.954315,-4.64429 1.116211,-9.31623 C -20.506195,191.67889 -20.447357,191.5 -18,191.5 c 2.5,0 2.5,0 2.5,27 0,26.41934 -0.04388,27.00629 -2.041138,27.29217 z m 145.392788,-2.28875 c -0.84216,0.32318 -2.09048,-0.0863 -2.77401,-0.90988 -0.68354,-0.82361 -1.09314,-2.13657 -0.91022,-2.9177 0.18292,-0.7811 5.50757,-6.14676 11.83258,-11.92364 6.32501,-5.77686 16.80823,-15.26148 23.29608,-21.07691 6.48779,-5.81537 15.43195,-13.85888 19.87579,-17.87439 4.44385,-4.0155 9.15522,-7.72778 10.46967,-8.24945 1.80652,-0.71704 2.78448,-0.55401 4.00641,0.66797 0.96741,0.96735 1.41315,2.55304 1.10998,3.94855 -0.27862,1.28259 -1.63678,4.80701 -3.01806,7.83203 -1.38135,3.02502 -3.65772,7.97498 -5.05866,11 -1.53588,3.31634 -2.18609,5.8678 -1.63781,6.42639 0.55609,0.56653 1.59832,0.36798 2.68298,-0.51111 0.97546,-0.79059 3.34863,-2.29931 5.27362,-3.35272 1.92499,-1.05341 4.28241,-2.39099 5.23871,-2.97241 1.36059,-0.82721 2.21686,-0.57904 3.93695,1.14105 2.1145,2.1145 2.13049,2.27301 0.42035,4.16272 -0.97779,1.08044 -3.42444,2.72876 -5.43695,3.6629 -2.01245,0.93409 -4.39283,2.3371 -5.28961,3.11768 -0.89686,0.78064 -3.14686,2.19916 -5,3.15222 -1.85322,0.95306 -5.24524,2.79419 -7.53785,4.09137 -2.44665,1.38428 -4.87512,2.08734 -5.87927,1.70203 -1.33099,-0.51081 -1.59936,-1.48731 -1.20886,-4.39862 0.27606,-2.05817 2.20068,-7.45844 4.27704,-12.00068 2.07629,-4.54223 3.50726,-8.52636 3.17993,-8.85369 -0.32733,-0.32734 -1.63294,0.24365 -2.90137,1.26886 -1.26843,1.0252 -6.12964,5.51818 -10.80267,9.98437 -4.67304,4.46619 -12.38837,11.44122 -17.1452,15.5 -4.75684,4.05878 -11.0832,9.4982 -14.0586,12.08756 -2.97534,2.58935 -6.09878,4.97235 -6.94095,5.2955 z m 187.2468,-24.44763 c -8.7497,-10.50574 -12.90778,-15.32874 -14.88519,-17.49573 -1.97742,-2.16699 -3.62183,-4.80805 -3.65424,-5.86902 -0.0325,-1.06097 0.72846,-2.43567 1.69098,-3.05493 1.18408,-0.76178 2.24182,-0.80414 3.27075,-0.13098 0.83643,0.54718 6.25165,6.39489 12.03382,12.99487 5.78216,6.59998 10.38531,12.67499 10.22924,13.5 -0.15612,0.82501 -3.06506,5.23535 -6.46435,9.80078 -3.39929,4.56543 -7.00391,9.41687 -8.01026,10.78095 -1.00634,1.36404 -2.75653,2.72247 -3.88928,3.0187 -1.24334,0.32514 -2.6073,-0.12124 -3.4414,-1.12634 -1.17804,-1.41943 -1.16773,-2.0087 0.0698,-3.99643 0.7984,-1.28232 4.06128,-5.95181 7.25085,-10.37665 z M 72.859009,240 c -0.95752,0 -2.105042,-0.5625 -2.549988,-1.25 -0.444977,-0.6875 -0.960297,-11.15002 -1.145233,-23.25 -0.184906,-12.09998 -0.53067,-22.19574 -0.768341,-22.435 -0.237702,-0.23926 -2.111389,1.17957 -4.163819,3.15296 -2.052398,1.97345 -5.241821,4.83685 -7.087585,6.36309 -2.600189,2.15009 -3.726196,2.54151 -5,1.73804 C 51.239807,203.74872 50.5,202.34674 50.5,201.20361 c 0,-1.30261 3.172729,-5.11908 8.5,-10.22467 4.674988,-4.48041 9.940887,-8.85663 11.701965,-9.72491 2.627381,-1.29535 3.479767,-1.34809 4.75,-0.29389 C 76.781097,182.06323 77,186.15845 77,209.92242 77,230.11609 76.675537,237.92447 75.799988,238.79999 75.140015,239.45999 73.816559,240 72.859009,240 Z M -159.4733,233 c -0.80098,0 -1.92216,-0.87042 -2.49151,-1.93427 C -162.57352,229.92841 -163,221.35529 -163,210.2569 c 0,-13.72937 0.34795,-19.35047 1.27638,-20.62018 0.81044,-1.10834 1.91574,-1.50025 3.02779,-1.07349 0.96326,0.36963 2.10252,1.40662 2.53169,2.30445 0.42916,0.89776 0.67691,9.95733 0.55057,20.13232 -0.13867,11.16772 -0.66048,19.1936 -1.31654,20.25 -0.59777,0.96249 -1.74219,1.75 -2.54319,1.75 z m 35.36991,-3 c -1.09655,0 -2.08561,-0.92249 -2.41242,-2.25 -0.30464,-1.23749 -0.42572,-10.125 -0.26904,-19.75 0.28485,-17.5 0.28485,-17.5 3.27522,-17.5 2.76445,0 3.04802,0.33997 3.75337,4.5 0.41968,2.47498 0.62452,10.64783 0.45524,18.16186 -0.21274,9.44178 -0.71494,14.15247 -1.62583,15.25 -0.72491,0.87348 -2.15437,1.58814 -3.17654,1.58814 z m 415.33258,-5.22241 c -11.80939,0.22967 -14.36804,0.0242 -14.83454,-1.19159 -0.31012,-0.80805 -0.40771,-2.28296 -0.21698,-3.27759 0.3097,-1.61468 1.73816,-1.84106 13.3346,-2.11328 7.14325,-0.16766 13.66272,0.10638 14.48773,0.60901 0.82501,0.50262 1.5,1.9898 1.5,3.30487 0,2.39099 0,2.39099 -14.27081,2.66858 z M -170.5,218 c -0.69031,0 -1.83763,-0.7019 -2.54959,-1.55975 -0.9256,-1.1153 -1.02487,-2.32636 -0.34836,-4.25 0.68269,-1.94123 1.63548,-2.69025 3.42203,-2.69025 1.97081,0 2.54167,0.57336 2.79817,2.81049 0.17725,1.54571 -0.21535,3.45825 -0.87244,4.25 C -168.70727,217.35223 -169.80969,218 -170.5,218 Z m 59.08725,-1 c -0.73828,0 -1.88364,-0.65216 -2.54517,-1.44928 -0.66153,-0.79712 -1.43405,-2.33362 -1.71667,-3.41437 -0.33081,-1.26507 0.14313,-2.30975 1.33035,-2.93255 1.07565,-0.56427 2.78192,-0.61341 4.09424,-0.11786 1.23749,0.46728 2.25,1.56872 2.25,2.44757 0,0.8789 -0.46582,2.46838 -1.03519,3.53222 -0.56933,1.06385 -1.63925,1.93427 -2.37756,1.93427 z m -32.54303,-16 c -0.94099,0 -2.01088,-0.29999 -2.37755,-0.66669 C -146.7,199.96667 -147,197.92755 -147,195.80194 c 0,-2.65552 0.51184,-4.0611 1.63592,-4.49249 0.89976,-0.34528 2.36226,-0.17322 3.25,0.38226 0.88775,0.55548 1.7591,2.22931 1.93633,3.71961 0.17725,1.49029 -0.21535,3.35742 -0.87244,4.14917 -0.65708,0.79174 -1.9646,1.43951 -2.90559,1.43951 z m -154.48978,-63 c -0.82959,0 -2.24548,-1.125 -3.14639,-2.5 -1.11301,-1.69861 -2.55157,-2.5 -4.48788,-2.5 -1.82636,0 -3.2342,0.71826 -3.92017,2 -0.58871,1.09998 -1.95453,2 -3.03519,2 -1.21014,0 -1.95922,-0.67218 -1.95025,-1.75 0.008,-0.96252 0.66061,-3.54999 1.45028,-5.75 0.78965,-2.20001 2.00772,-5.57501 2.70682,-7.5 0.6991,-1.92499 1.67658,-4.0625 2.17215,-4.75 0.49561,-0.6875 1.98062,-1.25 3.30008,-1.25 1.68298,0 2.72821,0.82074 3.50205,2.75 0.60669,1.51251 1.46209,3.65002 1.9009,4.75 0.43882,1.09998 1.56244,4.12054 2.49695,6.71228 0.93451,2.5918 1.4336,5.4043 1.10904,6.25 -0.32452,0.84576 -1.26883,1.53772 -2.09839,1.53772 z m 855.69611,-1.245 c -0.68726,0.2262 -1.45459,-0.18859 -1.70526,-0.92187 -0.25067,-0.73322 -0.55884,-5.15814 -0.68488,-9.83313 -0.12604,-4.67499 0.021,-9.17499 0.32666,-10 0.43701,-1.17944 0.95722,-1.2619 2.43439,-0.38592 1.12701,0.66845 1.87854,2.23663 1.87854,3.92004 0,2.2525 0.57477,2.96118 2.91431,3.59332 1.6029,0.43311 3.2904,0.55506 3.75,0.271 0.45965,-0.28406 0.83569,-2.00983 0.83569,-3.83502 0,-1.8252 0.69409,-3.89454 1.54236,-4.59858 1.02246,-0.84857 1.87762,-0.94488 2.5368,-0.2857 0.57105,0.57104 0.87232,5.42792 0.70764,11.40765 C 571.521,135.73773 571.35358,136.5 569.5,136.5 c -1.58331,0 -2.10419,-0.83331 -2.5,-4 -0.4762,-3.80951 -0.66669,-4 -4,-4 -3.32007,0 -3.5257,0.20166 -4,3.92181 -0.27502,2.15705 -1.06226,4.10694 -1.74945,4.33319 z m -98.32929,-1.80743 c -2.4317,-0.0289 -5.45715,-0.77429 -6.7232,-1.65649 -1.26611,-0.88221 -2.95032,-3.15577 -3.7428,-5.05231 -0.8194,-1.96118 -1.16168,-4.56036 -0.79358,-6.02692 0.35596,-1.41821 1.22681,-3.6958 1.93524,-5.06134 0.7085,-1.36554 2.71564,-3.08307 4.46039,-3.81665 1.74475,-0.73364 4.27521,-1.33386 5.62323,-1.33386 1.34802,0 3.32135,0.46582 4.3852,1.03516 1.06384,0.56939 1.93426,1.69439 1.93426,2.5 0,1.0849 -1.25671,1.46484 -4.84503,1.46484 -3.42377,0 -5.33045,0.53644 -6.5,1.82873 -0.91022,1.0058 -1.65497,3.06043 -1.65497,4.56574 0,1.50537 0.46582,3.60742 1.03516,4.67126 0.65887,1.23108 2.09161,1.93427 3.94104,1.93427 1.59814,0 3.15966,-0.41077 3.46991,-0.91284 0.3103,-0.50208 -0.65851,-1.80353 -2.15296,-2.89215 -2.33856,-1.70349 -2.53119,-2.20325 -1.38269,-3.58716 0.73395,-0.88428 2.53931,-1.60785 4.01196,-1.60785 1.47266,0 3.21759,0.53998 3.87757,1.20001 0.66003,0.65997 1.20001,3.06525 1.20001,5.34497 0,2.74567 -0.61737,4.7038 -1.82874,5.80005 -1.14691,1.0379 -3.47723,1.63544 -6.25,1.60254 z M -107.9108,131 c -2.57904,0 -5.22922,-0.53998 -5.88919,-1.20001 C -114.5575,129.04248 -115,125.24445 -115,119.5 c 0,-5.74445 0.4425,-9.54248 1.20001,-10.29999 0.65997,-0.66003 3.06525,-1.20001 5.345,-1.20001 2.88654,0 4.69916,0.61231 5.97022,2.01685 1.0296,1.13769 1.93521,3.86199 2.0776,6.25 0.1388,2.32824 0.575047,5.77563 0.969365,7.66088 0.596527,2.85187 0.338898,3.73395 -1.533385,5.25 -1.46216,1.18402 -3.89282,1.82227 -6.93961,1.82227 z M -306,124.59998 c -1.72494,1.72497 -1.9234,2.71496 -1.55386,3.31286 0.36953,0.59796 1.06878,1.08716 1.55386,1.08716 0.48508,0 1.1843,-0.4892 1.55383,-1.08716 0.36954,-0.5979 0.17112,-1.58789 -0.44098,-2.19995 z m 637.46252,3.08435 c -0.57067,0.18737 -1.58313,-0.20496 -2.25,-0.87183 C 328.43866,126.03864 328,122.27979 328,116.42242 c 0,-6.71502 0.38165,-9.49426 1.4223,-10.35797 0.79138,-0.65674 3.5293,-1.04376 6.17182,-0.87243 2.68817,0.17431 4.92926,0.85388 5.16363,1.56579 0.24835,0.75428 -0.81238,1.50312 -2.64941,1.87055 -1.68488,0.33697 -3.56232,1.21374 -4.172,1.94836 -0.60968,0.73462 -0.81824,1.80536 -0.46344,2.37946 0.35486,0.57409 1.98273,1.04382 3.61749,1.04382 1.75653,0 3.2146,0.63123 3.56452,1.54315 0.32568,0.8487 0.33441,1.80084 0.0194,2.11591 -0.31501,0.315 -2.05811,0.87463 -3.87354,1.24353 -2.92853,0.59509 -3.35712,1.10876 -3.80072,4.55591 -0.27502,2.13684 -0.96686,4.03845 -1.53748,4.22583 z m -78.0758,-1.38776 c -3.22864,0.3642 -5.53229,0.15784 -6.25,-0.55988 C 246.45874,125.05872 246,121.02222 246,115.73425 c 0,-4.87616 0.46582,-9.73614 1.03516,-10.79999 C 247.81464,103.47778 249.143,103 252.41272,103 c 2.69299,0 4.82861,0.58588 5.62244,1.54236 0.76281,0.91913 0.91333,1.89831 0.37243,2.42309 -0.49914,0.48438 -2.25757,1.02777 -3.90759,1.20759 -2.18793,0.23846 -3,0.85113 -3,2.26342 0,1.34528 0.99219,2.19348 3.25,2.77857 1.81256,0.46966 3.25,1.49292 3.25,2.31353 0,0.88263 -0.95135,1.47144 -2.37756,1.47144 -1.30762,0 -2.93299,0.66925 -3.61188,1.48724 -0.6789,0.818 -0.97308,2.16803 -0.65381,3 0.33801,0.88086 1.82208,1.51276 3.55286,1.51276 1.63476,0 3.26898,0.47992 3.63153,1.06653 0.36248,0.58661 0.50159,1.19855 0.30902,1.35986 -0.19263,0.16138 -2.65112,0.55292 -5.46344,0.87018 z m -360.62634,-0.49121 c 0.86563,-0.16797 1.7611,-0.86762 1.98992,-1.55481 0.22879,-0.68726 -0.32666,-1.53449 -1.23437,-1.88281 -0.90768,-0.34833 -2.12091,-0.16278 -2.69601,0.41235 -0.57511,0.57507 -0.72791,1.55975 -0.33954,2.18817 0.38833,0.62836 1.41433,1.00507 2.28,0.8371 z m 148.076595,-0.1023 c -3.788818,0.41675 -4.674805,0.11811 -7.009979,-2.36303 -1.470154,-1.56202 -3.195374,-4.00183 -3.833862,-5.42176 -0.863831,-1.9212 -0.877381,-3.63446 -0.05289,-6.69641 0.614776,-2.28302 2.270111,-5.02874 3.718719,-6.16827 C 35.360687,103.71503 37.746979,103 40.512421,103 c 2.333465,0 4.737091,0.5957 5.341339,1.32379 0.802276,0.96668 0.781372,1.64105 -0.07755,2.5 C 45.129303,107.4707 42.905823,108 40.835175,108 c -2.6987,0 -4.057953,0.54773 -4.799988,1.93426 C 35.46582,110.99811 35,113.05267 35,114.5 c 0,1.44733 0.46582,3.50189 1.035187,4.56574 0.782989,1.46301 2.108551,1.93426 5.440979,1.93426 2.423187,0 4.70816,0.4892 5.077698,1.08716 0.369537,0.5979 0.210205,1.54877 -0.354035,2.11303 -0.564239,0.56421 -2.977539,1.24055 -5.362854,1.50287 z M 158.66229,125 c -1.87958,0 -3.93933,-0.62891 -4.57727,-1.39758 -0.75415,-0.90863 -1.05932,-4.84442 -0.8725,-11.25 C 153.5,102.5 153.5,102.5 160.14563,102.5 c 4.99091,0 7.13965,0.4472 8.62958,1.79596 1.09112,0.98779 2.25317,3.47992 2.58227,5.53802 0.3291,2.05817 0.1366,5.41437 -0.42773,7.45832 -0.78485,2.8424 -1.94592,4.18548 -4.93811,5.71197 C 163.84009,124.10193 160.54187,125 158.66229,125 Z m 1.53955,-4 c 0.47766,0 1.97766,-0.72675 3.33332,-1.61499 1.99621,-1.30798 2.46484,-2.44434 2.46484,-5.97699 0,-3.54559 -0.46643,-4.66754 -2.49231,-5.99493 -1.37073,-0.89814 -3.17072,-1.37262 -4,-1.05445 -1.12506,0.43177 -1.50769,2.19379 -1.50769,6.9433 0,3.50061 0.29999,6.66473 0.66669,7.03137 0.36663,0.3667 1.05749,0.66669 1.53515,0.66669 z M -108,111.59998 c -1.7558,1.75586 -1.99493,2.97082 -1.66415,3.83282 0.33074,0.86194 1.07962,1.5672 1.66415,1.5672 0.58453,0 1.3334,-0.70526 1.66415,-1.5672 0.33078,-0.862 0.0916,-2.07696 -0.53137,-2.70001 z m 573.5,-7.39972 c -3.84998,0.18438 -8.57501,0.0621 -10.5,-0.27179 -1.92499,-0.33393 -5.07501,-1.28626 -7,-2.11627 -1.92499,-0.83002 -4.98657,-2.762578 -6.80353,-4.294561 -2.4544,-2.06958 -3.22546,-3.457825 -3,-5.40155 0.20667,-1.781128 0.98102,-2.712769 2.42627,-2.918945 1.32471,-0.189026 3.4668,0.964721 5.698,3.06903 3.06818,2.893677 4.72076,3.547242 11.65265,4.608399 6.13104,0.938537 8.97497,0.961853 11.80206,0.09668 2.04846,-0.626892 4.84955,-1.483093 6.22455,-1.902648 1.375,-0.419556 4.72687,-1.823182 7.44855,-3.119141 2.72174,-1.296021 6.65924,-4.11908 8.75,-6.273499 C 495.20898,82.573975 496,80.989319 496,78.060913 c 0,-2.033874 -0.68372,-6.000183 -1.51935,-8.814087 -0.83563,-2.813904 -3.25244,-7.283081 -5.3706,-9.931518 -2.11823,-2.648438 -5.83655,-5.838318 -8.26288,-7.088684 -4.18787,-2.158204 -5.3476,-2.259583 -22.87934,-2 C 439.5,50.5 439.5,50.5 439.5,53.5 c 0,3 0,3 13.20416,3.5 8.54535,0.323608 13.63904,0.93634 14.43677,1.736755 0.97729,0.980591 0.75574,1.744324 -1.06976,3.6875 -2.23505,2.37909 -2.71997,2.450745 -16.58112,2.450745 -9.44995,0 -14.82428,-0.401611 -15.89178,-1.1875 -1.27216,-0.936523 -1.72193,-3.723694 -2.12799,-13.1875 -0.28315,-6.599976 -0.25501,-13.486145 0.0626,-15.302551 0.31756,-1.816407 1.28876,-3.575501 2.1582,-3.90918 0.86939,-0.333618 2.30707,-0.151733 3.19482,0.404175 0.92444,0.578857 1.8277,2.890076 2.11408,5.409119 0.5,4.398437 0.5,4.398437 19,4.64215 14.08301,0.185608 19.52783,0.628174 22.80505,1.85376 2.36774,0.885498 6.89008,4.003296 10.04962,6.928467 3.39643,3.144531 6.84845,7.572754 8.44501,10.833313 2.3783,4.857239 2.70032,6.690613 2.70032,15.374878 0,9.859985 0,9.859985 -3.75,13.466247 -2.0625,1.98346 -5.95117,4.984253 -8.64142,6.668457 -2.69031,1.684266 -7.64032,3.947385 -11,5.029175 -3.35974,1.08185 -9.2586,2.11786 -13.10858,2.30225 z m 77.91669,-3.23206 c -1.14588,0.0175 -2.38337,-0.26819 -2.75,-0.63489 C 540.29999,99.966675 540,98.655273 540,97.419128 c 0,-1.620239 1.39563,-3.106323 5,-5.324096 5,-3.076538 5,-3.076538 5,-20.269654 0,-17.193054 0,-17.193054 -5.06049,-22.070739 -3.99322,-3.848938 -4.99499,-5.442871 -4.75,-7.557618 0.17524,-1.512695 1.02082,-2.814453 1.94141,-2.988891 0.89703,-0.169922 3.82208,1.500549 6.5,3.712158 2.67798,2.211609 5.65656,4.70929 6.61908,5.550415 1.56146,1.364502 1.75,3.767944 1.75,22.306763 0,17.432556 -0.25775,21.145508 -1.60089,23.063171 -0.88056,1.25708 -2.56806,2.66803 -3.75,3.135498 -1.18201,0.467407 -3.04913,1.549683 -4.14911,2.40503 -1.09998,0.855405 -2.9375,1.569515 -4.08331,1.587035 z m 51.57476,-2.223144 c -1.58148,0.155579 -4.22052,-1.062134 -7.22552,-3.333984 -3.42828,-2.591858 -4.98462,-4.590332 -5.64246,-7.245117 -0.49957,-2.016236 -0.81152,-11.179139 -0.69311,-20.361878 0.21521,-16.695923 0.21521,-16.695923 4.61529,-21.5 2.41999,-2.642212 5.47943,-5.667297 6.79877,-6.72229 1.78913,-1.430725 2.81256,-1.657593 4.02716,-0.892822 0.89563,0.563965 1.77936,1.79303 1.96387,2.731262 0.19476,0.990234 -1.79785,3.961426 -4.75,7.082947 C 589,53.880249 589,53.880249 589,70.048584 c 0,16.168274 0,16.168274 4.60486,20.39624 3.05951,2.809143 4.48285,4.870117 4.24139,6.141541 -0.22491,1.184448 -1.31274,2.007019 -2.8548,2.158691 z M -261.77856,94 c -1.00181,0 -2.36145,-0.539978 -3.02146,-1.200012 C -265.64243,91.957581 -266,86.35553 -266,74 c 0,-12.35553 0.35757,-17.957581 1.19998,-18.799988 C -264.14001,54.539978 -262.78037,54 -261.77856,54 c 1.0018,0 2.23184,1.012512 2.73346,2.25 0.50158,1.237488 0.92761,9.224976 0.94671,17.75 0.0191,8.525024 -0.39129,16.512512 -0.91199,17.75 -0.52072,1.237488 -1.76638,2.25 -2.76818,2.25 z m 119.36583,0 c -0.73832,0 -1.85346,-0.615784 -2.47811,-1.368469 -0.81056,-0.976685 -1.06035,-11.181031 -0.87243,-35.641358 0.23756,-30.926696 0.42842,-34.377075 1.95474,-35.339538 1.30256,-0.82135 2.19188,-0.616394 3.86802,0.891418 1.19712,1.076843 2.46407,2.632935 2.81546,3.457947 0.35138,0.825012 3.38263,5.611755 6.7361,10.637268 3.35346,5.025513 7.31118,10.875549 8.79492,13 1.48374,2.124512 4.13688,6.114929 5.89588,8.867615 1.75897,2.752685 5.22314,7.892395 7.69815,11.42157 2.47501,3.529174 5.29126,7.801941 6.25836,9.495117 0.9671,1.693115 2.214357,3.07843 2.771639,3.07843 0.557312,0 2.154541,-2.474976 3.549408,-5.5 1.394897,-3.025024 3.675689,-7.974976 5.06842,-11 1.392761,-3.025024 4.026856,-8.650024 5.853546,-12.5 1.826721,-3.849976 5.624237,-11.86615 8.438904,-17.81366 4.807129,-10.157531 5.282684,-10.794555 7.838654,-10.5 2.325134,0.268006 2.703216,0.753418 2.598419,3.335755 -0.06748,1.66217 -1.8638,6.387146 -3.991852,10.5 -2.128052,4.112854 -4.119873,8.377929 -4.426239,9.477905 -0.306366,1.099976 -2.490234,6.049988 -4.852997,11 -2.362793,4.950012 -5.893188,12.375 -7.845337,16.5 -1.952179,4.125 -4.290252,9.067993 -5.195739,10.984436 -0.905488,1.916443 -2.822693,4.144714 -4.260437,4.95166 -2.420533,1.358643 -2.841492,1.285767 -5.685489,-0.984436 -1.6893,-1.348389 -7.2445,-8.751648 -12.34494,-16.45166 -5.10043,-7.700012 -9.49869,-14.498962 -9.77391,-15.108765 -0.27522,-0.609863 -1.85042,-2.859863 -3.50041,-5 -1.64999,-2.140136 -3.675,-5.055603 -4.5,-6.478759 -0.825,-1.423157 -2.38452,-4.010682 -3.46561,-5.75 C -136.54669,40.423096 -137.78419,39 -138.21561,39 -138.64702,39 -139,50.504578 -139,64.565735 c 0,15.710754 -0.39903,26.31134 -1.03519,27.5 C -140.60454,93.129578 -141.67444,94 -142.41273,94 Z m 80.839732,-0.304626 c -0.590149,0.194274 -1.827637,-0.480591 -2.75,-1.499756 C -65.764923,90.602295 -66,87.753357 -66,71.871277 -66,58.838074 -65.646698,53.046692 -64.799988,52.200012 -64.140015,51.539978 -62.780365,51 -61.778564,51 c 1.0018,0 2.231933,1.012512 2.733612,2.25 0.501709,1.237488 0.94815,9.674988 0.992126,18.75 0.05566,11.490173 -0.303711,17.235107 -1.183624,18.921021 -0.694946,1.331604 -1.746399,2.580017 -2.336548,2.774353 z M -277.60214,91.758667 c -1.22913,0.16748 -6.6547,-4.015259 -15.39786,-11.87085 -7.42502,-6.671264 -19.35001,-17.414734 -26.5,-23.87445 -7.14999,-6.459717 -18.85001,-16.981751 -26,-23.382263 -7.14999,-6.400574 -13.87903,-12.76587 -14.9534,-14.145142 -1.78299,-2.289002 -1.81509,-2.646057 -0.36819,-4.092957 0.87185,-0.871826 2.29892,-1.429443 3.17123,-1.239074 0.87235,0.190307 6.75638,4.979919 13.07565,10.643493 6.31928,5.663575 16.70792,14.97406 23.08588,20.689942 6.37796,5.715942 17.29553,15.482116 24.26129,21.702636 6.96576,6.220459 15.15408,13.654053 18.19626,16.519043 4.68158,4.408875 5.36197,5.484192 4.42914,7 -0.60617,0.985047 -1.95615,1.907349 -3,2.049622 z m 150.69716,-3.789063 c -0.32726,-0.01672 -1.38253,-0.489074 -2.34502,-1.049682 -0.96249,-0.560608 -1.75,-1.602173 -1.75,-2.314636 0,-0.712403 0.91588,-2.124146 2.03529,-3.137207 1.98236,-1.794007 2.09127,-1.78595 4.18694,0.309692 2.09566,2.095703 2.10371,2.20459 0.30971,4.186951 -1.01305,1.119384 -2.10967,2.021606 -2.43692,2.004882 z M 355.58728,87 c -0.73834,0 -1.77069,-0.5625 -2.29419,-1.25 -0.5235,-0.6875 -0.98218,-5.974976 -1.01929,-11.75 -0.0408,-6.337341 -0.46673,-10.5 -1.07452,-10.5 -0.55389,0 -2.96277,2.213684 -5.35315,4.91925 -2.39038,2.705567 -5.47113,6.139588 -6.84613,7.631226 -1.375,1.491577 -4.4375,4.415405 -6.8056,6.497376 -4.30561,3.785339 -4.30561,3.785339 -6.40906,1.681945 -2.10345,-2.103454 -2.10345,-2.103454 1.17932,-5.916626 1.80548,-2.097229 4.35449,-4.938171 5.66437,-6.313171 1.30987,-1.375 5.10876,-5.424988 8.44195,-9 3.33319,-3.575012 9.8996,-10.662476 14.59192,-15.75 7.42743,-8.052917 8.95612,-9.25 11.81189,-9.25 1.8042,0 3.84516,0.680603 4.53552,1.512451 0.89722,1.081055 1.20496,5.573303 1.07892,15.75 -0.13665,11.033692 -0.5083,14.571289 -1.65155,15.720581 -1.11877,1.124756 -1.89349,1.219849 -3.20642,0.393677 -1.42669,-0.897705 -1.78186,-2.915649 -2.01886,-11.470642 -0.1582,-5.709717 -0.64886,-10.742554 -1.09039,-11.184082 -0.44153,-0.441528 -1.99964,1.005737 -3.4624,3.216186 C 359.10779,55.794189 359,56.507935 359,69.544312 c 0,7.472961 -0.46582,14.45758 -1.03516,15.521423 C 357.39545,86.129578 356.32556,87 355.58728,87 Z M 142.8501,82.819336 c -1.23639,0.213806 -2.17792,-0.551453 -2.84851,-2.315125 C 139.42883,78.997803 139,67.065125 139,52.634888 139,34.341064 139.33008,27.069946 140.20001,26.200012 140.85998,25.539978 142.21967,25 143.22144,25 c 1.00177,0 2.29705,1.043884 2.87835,2.319763 0.58136,1.275818 0.98407,7.463318 0.89502,13.75 -0.0891,6.286621 -0.12433,15.17572 -0.0784,19.75354 0.0665,6.623902 0.37177,8.257324 1.49524,8 0.77643,-0.177795 5.27161,-4.148315 9.98932,-8.823303 5.9856,-5.931396 9.30426,-8.5 10.982,-8.5 1.8872,0 3.55645,1.70697 7.76068,7.936096 2.94598,4.364807 5.80633,7.853699 6.35632,7.753052 0.60327,-0.110413 1.19836,-7.622864 1.5,-18.936096 C 185.5,29.5 185.5,29.5 188.5,29.5 c 3,0 3,0 3.29724,24 0.16351,13.200012 -0.10687,24.674988 -0.60083,25.5 -0.49396,0.825012 -2.25574,1.636597 -3.91504,1.803467 -2.62042,0.263611 -3.5271,-0.384339 -6.89911,-4.930664 C 178.24701,72.994019 175.375,69.076294 174,67.166748 c -1.375,-1.909607 -3.24109,-3.934204 -4.14679,-4.499145 -1.27533,-0.795472 -2.45197,-0.366272 -5.21612,1.902587 -1.96314,1.61139 -7.25275,6.30481 -11.75471,10.42981 -4.50195,4.125 -9.01647,7.643677 -10.03228,7.819336 z m 106.20807,-4.882752 c -0.857,-0.03485 -2.54444,-0.460632 -3.74988,-0.946167 -1.20545,-0.485595 -2.84455,-1.919555 -3.64246,-3.186645 C 240.86786,72.536682 239.60413,70.375 238.85748,69 238.1109,67.625 236.71252,65.305542 235.75,63.845642 234.78748,62.385742 234,60.009094 234,58.56427 c 0,-1.444885 0.63983,-2.872559 1.42187,-3.172668 0.78199,-0.30011 2.29834,-0.07654 3.36963,0.496826 1.07129,0.573303 2.6753,2.575561 3.56452,4.449341 0.88916,1.87384 2.52246,4.476867 3.62951,5.784606 2.01288,2.377625 2.01288,2.377625 4.26368,-0.612487 1.23791,-1.644593 3.66491,-4.847596 5.39325,-7.117737 1.72833,-2.270203 4.74633,-6.549622 6.70666,-9.509888 1.96027,-2.960266 4.51795,-6.619751 5.68359,-8.132263 1.16565,-1.512512 2.96418,-2.75 3.99665,-2.75 1.03253,0 2.64038,1.012512 3.57306,2.25 1.43847,1.908691 1.68768,4.719604 1.64251,18.528992 -0.0292,8.95343 -0.30719,16.940918 -0.61767,17.75 C 276.31677,77.338074 275.19678,78 274.13837,78 273.07996,78 271.94086,77.288208 271.60699,76.418213 271.27313,75.548218 271,69.949768 271,63.977234 c 0,-5.972534 -0.4339,-11.12738 -0.96417,-11.455078 -0.53028,-0.327759 -2.17481,1.321899 -3.65454,3.665832 -1.47968,2.343994 -4.30829,6.377442 -6.28577,8.963257 -1.97754,2.585877 -4.91937,6.534668 -6.53735,8.775147 -1.61798,2.240478 -3.64301,4.045105 -4.5,4.010192 z M 575.45502,75 c -0.62976,0 -1.9834,-0.926331 -3.008,-2.058533 -1.39062,-1.536621 -1.60315,-2.470398 -0.83813,-3.683166 0.5636,-0.893555 1.721,-2.063843 2.57202,-2.600647 0.85101,-0.536743 2.28338,-0.693482 3.18316,-0.348206 0.98157,0.376709 1.63593,1.760315 1.63593,3.459168 0,1.557251 -0.53998,3.371399 -1.20001,4.031372 C 577.14001,74.460022 576.08472,75 575.45502,75 Z M 51.620544,67 C 50.399231,67 48.859985,66.460022 48.200012,65.799988 47.460236,65.060242 47,61.429932 47,56.334717 c 0,-8.265259 0,-8.265259 -7.150482,-12.932923 -3.93277,-2.56726 -7.96933,-4.881897 -8.970154,-5.143615 -1.131744,-0.29596 -3.791962,1.094543 -7.036682,3.678039 -3.123322,2.486756 -6.044891,4.035401 -7.279846,3.858826 -1.39029,-0.198853 -2.162781,-1.158142 -2.369355,-2.942322 -0.249633,-2.156006 0.539063,-3.254516 4.25,-5.919494 C 20.949585,35.133484 23,33.334167 23,32.934753 c 0,-0.399475 -2.362244,-2.235656 -5.24939,-4.080505 -2.887176,-1.844849 -6.59967,-4.566101 -8.25,-6.047241 -2.503021,-2.24646 -2.811432,-2.992676 -1.859863,-4.5 0.696808,-1.10376 2.164215,-1.732666 3.770722,-1.615906 1.446472,0.105103 3.858154,1.155579 5.359252,2.334473 1.501099,1.178833 5.075104,3.643493 7.942261,5.476989 5.212982,3.33368 5.212982,3.33368 9.09195,0.523804 2.133422,-1.545471 5.548065,-4.275451 7.588104,-6.066589 2.040008,-1.791138 4.771301,-3.459717 6.069519,-3.707886 1.716583,-0.328125 2.696075,0.175964 3.591003,1.848145 1.109864,2.073791 0.897797,2.582031 -2.161499,5.180664 -1.865631,1.584716 -5.329193,4.233459 -7.696808,5.886047 -2.367645,1.652588 -4.140838,3.49646 -3.94049,4.097534 0.200348,0.601074 1.237488,1.574951 2.304748,2.164246 1.067261,0.589294 2.873871,1.863098 4.014679,2.830627 1.140808,0.96753 2.378296,1.455017 2.75,1.083313 C 46.695892,37.970764 47,35.806641 47,33.533325 47,31.26001 47.540009,28.859985 48.200012,28.200012 48.859985,27.539978 50.434998,27 51.700012,27 c 2.013794,0 2.32013,0.528809 2.461975,4.25 0.08908,2.337524 0.243256,6.18811 0.342591,8.556885 0.09933,2.368774 0.813934,4.873291 1.588012,5.565613 0.774079,0.692321 4.006958,3.029235 7.184143,5.193115 3.177216,2.16394 6.962342,4.623901 8.411347,5.466614 1.449035,0.842712 3.098419,2.267517 3.665283,3.166198 0.737732,1.169556 0.657074,2.084046 -0.283783,3.217774 C 74.346619,63.287292 72.700867,64 71.412354,64 70.12384,64 67.591431,62.733826 65.78479,61.186279 c -1.806641,-1.547607 -4.696686,-3.792175 -6.422302,-4.988037 -2.512604,-1.741211 -3.350769,-1.917297 -4.208161,-0.884216 -0.588836,0.709534 -0.821075,2.244385 -0.516052,3.410766 0.305023,1.166382 0.250427,3.505433 -0.121307,5.197937 C 54.009705,66.2323 53.287109,67 51.620544,67 Z M -281.75,56.948547 c -0.96249,-0.02826 -3.55002,-1.499145 -5.75,-3.268615 -2.20001,-1.76941 -5.57501,-4.794739 -7.5,-6.722962 -1.92502,-1.928222 -6.20001,-5.706543 -9.5,-8.39624 -3.30002,-2.689697 -7.35001,-6.297302 -9,-8.016785 -1.64999,-1.719543 -5.284,-5.132873 -8.07556,-7.585205 -2.79157,-2.452331 -7.73099,-6.70874 -10.97647,-9.45874 -3.24549,-2.75 -7.26148,-6.383789 -8.92444,-8.075073 -1.66293,-1.691345 -4.97897,-4.613648 -7.36896,-6.49408 -2.38998,-1.880432 -4.76831,-4.209106 -5.28518,-5.174927 -0.61136,-1.142334 -0.5481,-2.487732 0.18106,-3.850158 0.70254,-1.312744 1.79049,-1.919129 2.91537,-1.624939 0.987,0.258117 3.53598,2.07489 5.66437,4.037353 2.12839,1.962403 6.19781,5.506165 9.04312,7.874939 2.84534,2.368775 15.8139,13.90564 28.81903,25.63739 13.92172,12.558594 24.20044,21.117615 24.99469,20.812867 0.74194,-0.284729 3.26138,-3.808472 5.59875,-7.830506 2.33738,-4.022095 5.08054,-8.206604 6.09589,-9.299011 1.45395,-1.564209 2.21491,-1.753845 3.58222,-0.892761 0.95486,0.601257 1.88772,1.86438 2.07306,2.806885 0.18533,0.942443 -0.79227,3.369201 -2.17243,5.392822 -1.38016,2.023559 -3.953,6.550415 -5.71744,10.059692 -1.76443,3.509278 -4.04934,7.221741 -5.07757,8.25 -1.02823,1.028198 -2.65702,1.846375 -3.61951,1.818054 z m 183.664398,-9.14801 c -2.308718,0.193543 -4.040068,-0.24707 -4.861878,-1.237244 -0.70193,-0.845825 -1.03726,-2.160644 -0.74515,-2.921875 0.29212,-0.76123 1.70169,-1.677856 3.13239,-2.036926 1.430693,-0.35907 3.519346,-0.16156 4.641447,0.438965 1.299897,0.695679 1.927429,1.883728 1.729492,3.274231 -0.243377,1.709351 -1.087768,2.247437 -3.896301,2.482849 z M 168.15381,45 c -5.65375,0 -8.24878,-0.409485 -9.10077,-1.436096 -0.89472,-1.078064 -0.91101,-1.960816 -0.0653,-3.541016 1.01697,-1.900207 1.86469,-2.07666 8.7143,-1.813904 5.67004,0.217469 7.84411,0.698975 8.60199,1.905091 0.55786,0.887756 0.73181,2.350219 0.38653,3.25 C 176.18256,44.687805 174.55359,45 168.15381,45 Z"
     style="display:inline" />
</svg>
